<mxfile host="app.diagrams.net" modified="2024-05-14T12:51:45.324Z" agent="Mozilla/5.0 (X11; Linux x86_64) AppleWebKit/537.36 (KHTML, like Gecko) Chrome/124.0.0.0 Safari/537.36" etag="jh2VWvEUVc2zT_uOIa8V" version="24.4.0" type="device" pages="10">
  <diagram name="2.0 - Interfaz empleado" id="gI9lNFjA96TSiRvbzLLa">
    <mxGraphModel dx="1120" dy="528" grid="1" gridSize="10" guides="1" tooltips="1" connect="1" arrows="1" fold="1" page="1" pageScale="1" pageWidth="850" pageHeight="1100" math="0" shadow="0">
      <root>
        <mxCell id="HL9u6WKw02qNyfV0WVwn-0" />
        <mxCell id="HL9u6WKw02qNyfV0WVwn-1" parent="HL9u6WKw02qNyfV0WVwn-0" />
        <mxCell id="HL9u6WKw02qNyfV0WVwn-2" value="" style="shape=table;startSize=0;container=1;collapsible=0;childLayout=tableLayout;fontSize=16;movable=0;resizable=0;rotatable=0;deletable=0;editable=0;locked=1;connectable=0;" parent="HL9u6WKw02qNyfV0WVwn-1" vertex="1">
          <mxGeometry x="90" y="290" width="670" height="400" as="geometry" />
        </mxCell>
        <mxCell id="HL9u6WKw02qNyfV0WVwn-3" value="" style="shape=tableRow;horizontal=0;startSize=0;swimlaneHead=0;swimlaneBody=0;strokeColor=inherit;top=0;left=0;bottom=0;right=0;collapsible=0;dropTarget=0;fillColor=none;points=[[0,0.5],[1,0.5]];portConstraint=eastwest;fontSize=16;" parent="HL9u6WKw02qNyfV0WVwn-2" vertex="1">
          <mxGeometry width="670" height="37" as="geometry" />
        </mxCell>
        <mxCell id="HL9u6WKw02qNyfV0WVwn-4" value="Entrada" style="shape=partialRectangle;html=1;whiteSpace=wrap;connectable=0;strokeColor=inherit;overflow=hidden;fillColor=none;top=0;left=0;bottom=0;right=0;pointerEvents=1;fontSize=20;fontStyle=1" parent="HL9u6WKw02qNyfV0WVwn-3" vertex="1">
          <mxGeometry width="140" height="37" as="geometry">
            <mxRectangle width="140" height="37" as="alternateBounds" />
          </mxGeometry>
        </mxCell>
        <mxCell id="HL9u6WKw02qNyfV0WVwn-5" value="Proceso" style="shape=partialRectangle;html=1;whiteSpace=wrap;connectable=0;strokeColor=inherit;overflow=hidden;fillColor=none;top=0;left=0;bottom=0;right=0;pointerEvents=1;fontSize=20;fontStyle=1" parent="HL9u6WKw02qNyfV0WVwn-3" vertex="1">
          <mxGeometry x="140" width="307" height="37" as="geometry">
            <mxRectangle width="307" height="37" as="alternateBounds" />
          </mxGeometry>
        </mxCell>
        <mxCell id="HL9u6WKw02qNyfV0WVwn-6" value="Salida" style="shape=partialRectangle;html=1;whiteSpace=wrap;connectable=0;strokeColor=inherit;overflow=hidden;fillColor=none;top=0;left=0;bottom=0;right=0;pointerEvents=1;fontSize=20;fontStyle=1" parent="HL9u6WKw02qNyfV0WVwn-3" vertex="1">
          <mxGeometry x="447" width="223" height="37" as="geometry">
            <mxRectangle width="223" height="37" as="alternateBounds" />
          </mxGeometry>
        </mxCell>
        <mxCell id="HL9u6WKw02qNyfV0WVwn-7" value="" style="shape=tableRow;horizontal=0;startSize=0;swimlaneHead=0;swimlaneBody=0;strokeColor=inherit;top=0;left=0;bottom=0;right=0;collapsible=0;dropTarget=0;fillColor=none;points=[[0,0.5],[1,0.5]];portConstraint=eastwest;fontSize=16;" parent="HL9u6WKw02qNyfV0WVwn-2" vertex="1">
          <mxGeometry y="37" width="670" height="363" as="geometry" />
        </mxCell>
        <mxCell id="HL9u6WKw02qNyfV0WVwn-8" value="" style="shape=partialRectangle;html=1;whiteSpace=wrap;connectable=0;strokeColor=inherit;overflow=hidden;fillColor=none;top=0;left=0;bottom=0;right=0;pointerEvents=1;fontSize=16;" parent="HL9u6WKw02qNyfV0WVwn-7" vertex="1">
          <mxGeometry width="140" height="363" as="geometry">
            <mxRectangle width="140" height="363" as="alternateBounds" />
          </mxGeometry>
        </mxCell>
        <mxCell id="HL9u6WKw02qNyfV0WVwn-9" value="" style="shape=partialRectangle;html=1;whiteSpace=wrap;connectable=0;strokeColor=inherit;overflow=hidden;fillColor=none;top=0;left=0;bottom=0;right=0;pointerEvents=1;fontSize=16;" parent="HL9u6WKw02qNyfV0WVwn-7" vertex="1">
          <mxGeometry x="140" width="307" height="363" as="geometry">
            <mxRectangle width="307" height="363" as="alternateBounds" />
          </mxGeometry>
        </mxCell>
        <mxCell id="HL9u6WKw02qNyfV0WVwn-10" value="" style="shape=partialRectangle;html=1;whiteSpace=wrap;connectable=0;strokeColor=inherit;overflow=hidden;fillColor=none;top=0;left=0;bottom=0;right=0;pointerEvents=1;fontSize=16;" parent="HL9u6WKw02qNyfV0WVwn-7" vertex="1">
          <mxGeometry x="447" width="223" height="363" as="geometry">
            <mxRectangle width="223" height="363" as="alternateBounds" />
          </mxGeometry>
        </mxCell>
        <mxCell id="HL9u6WKw02qNyfV0WVwn-11" value="&lt;b&gt;&lt;u&gt;&lt;font style=&quot;font-size: 16px;&quot;&gt;camicandy&lt;/font&gt;&lt;/u&gt;&lt;/b&gt;" style="shape=cylinder3;whiteSpace=wrap;html=1;boundedLbl=1;backgroundOutline=1;size=15;" parent="HL9u6WKw02qNyfV0WVwn-1" vertex="1">
          <mxGeometry x="100" y="450" width="120" height="110" as="geometry" />
        </mxCell>
        <mxCell id="HL9u6WKw02qNyfV0WVwn-14" value="" style="html=1;shadow=0;dashed=0;align=center;verticalAlign=middle;shape=mxgraph.arrows2.arrow;dy=0.6;dx=40;notch=0;rotation=90;" parent="HL9u6WKw02qNyfV0WVwn-1" vertex="1">
          <mxGeometry x="610.63" y="496" width="80" height="52.5" as="geometry" />
        </mxCell>
        <mxCell id="HL9u6WKw02qNyfV0WVwn-15" value="" style="html=1;shadow=0;dashed=0;align=center;verticalAlign=middle;shape=mxgraph.arrows2.arrow;dy=0.6;dx=40;notch=0;rotation=0;" parent="HL9u6WKw02qNyfV0WVwn-1" vertex="1">
          <mxGeometry x="510" y="487.5" width="80" height="50" as="geometry" />
        </mxCell>
        <mxCell id="HL9u6WKw02qNyfV0WVwn-16" value="&lt;div&gt;&lt;span style=&quot;font-size: 14px;&quot;&gt;&lt;br&gt;&lt;/span&gt;&lt;/div&gt;&lt;ul style=&quot;line-height: 150%; font-size: 14px;&quot;&gt;&lt;li&gt;Clientes&lt;/li&gt;&lt;li&gt;Transacciones&lt;/li&gt;&lt;li&gt;Ayuda&lt;/li&gt;&lt;/ul&gt;" style="text;html=1;align=center;verticalAlign=middle;whiteSpace=wrap;rounded=0;fontSize=16;" parent="HL9u6WKw02qNyfV0WVwn-1" vertex="1">
          <mxGeometry x="360" y="500" width="140" height="150" as="geometry" />
        </mxCell>
        <mxCell id="HL9u6WKw02qNyfV0WVwn-17" value="&lt;font style=&quot;font-size: 14px;&quot;&gt;Ver diagrama 4.0&lt;/font&gt;&lt;div&gt;&lt;span style=&quot;font-size: 14px;&quot;&gt;Ver diagrama 5.0&lt;/span&gt;&lt;/div&gt;&lt;div&gt;&lt;span style=&quot;font-size: 14px; background-color: initial;&quot;&gt;Ver diagram&lt;/span&gt;&lt;span style=&quot;color: rgba(0, 0, 0, 0); font-family: monospace; font-size: 0px; text-align: start; text-wrap: nowrap; background-color: initial;&quot;&gt;hModel%3E%3Croot%3E%3CmxCell%20id%3D%220%22%2F%3E%3CmxCell%20id%3D%221%22%20parent%3D%220%22%2F%3E%3CmxCell%20id%3D%222%22%20value%3D%22%22%20style%3D%22endArrow%3Dnone%3Bhtml%3D1%3Brounded%3D0%3BfontSize%3D12%3BstartSize%3D8%3BendSize%3D8%3Bcurved%3D1%3BexitX%3D0.224%3BexitY%3D0.311%3BexitDx%3D0%3BexitDy%3D0%3BexitPerimeter%3D0%3B%22%20edge%3D%221%22%20parent%3D%221%22%3E%3CmxGeometry%20width%3D%2250%22%20height%3D%2250%22%20relative%3D%221%22%20as%3D%22geometry%22%3E%3CmxPoint%20x%3D%22240%22%20y%3D%22440%22%20as%3D%22sourcePoint%22%2F%3E%3CmxPoint%20x%3D%22324.99571428571426%22%20y%3D%22440%22%20as%3D%22targetPoint%22%2F%3E%3C%2FmxGeometry%3E%3C%2FmxCell%3E%3C%2Froot%3E%3C%2FmxGraphModel%3E&lt;/span&gt;&lt;span style=&quot;background-color: initial; font-size: 14px;&quot;&gt;a 6.0&lt;/span&gt;&lt;/div&gt;&lt;div&gt;&lt;font style=&quot;font-size: 14px;&quot;&gt;&lt;br&gt;&lt;/font&gt;&lt;/div&gt;" style="text;html=1;align=center;verticalAlign=middle;whiteSpace=wrap;rounded=0;fontSize=16;" parent="HL9u6WKw02qNyfV0WVwn-1" vertex="1">
          <mxGeometry x="353" y="686" width="135" height="142.5" as="geometry" />
        </mxCell>
        <mxCell id="HL9u6WKw02qNyfV0WVwn-18" value="" style="group" parent="HL9u6WKw02qNyfV0WVwn-1" vertex="1" connectable="0">
          <mxGeometry x="260" y="570" width="110" height="162.65" as="geometry" />
        </mxCell>
        <mxCell id="HL9u6WKw02qNyfV0WVwn-19" value="" style="endArrow=none;html=1;rounded=0;fontSize=12;startSize=8;endSize=8;curved=1;exitX=0.224;exitY=0.311;exitDx=0;exitDy=0;exitPerimeter=0;editable=0;" parent="HL9u6WKw02qNyfV0WVwn-18" edge="1">
          <mxGeometry width="50" height="50" relative="1" as="geometry">
            <mxPoint y="0.003046831095891057" as="sourcePoint" />
            <mxPoint x="110" y="0.11171714018109412" as="targetPoint" />
            <Array as="points">
              <mxPoint x="64.66647600141323" y="0.11171714018109412" />
            </Array>
          </mxGeometry>
        </mxCell>
        <mxCell id="HL9u6WKw02qNyfV0WVwn-20" value="" style="endArrow=none;html=1;rounded=0;fontSize=12;startSize=8;endSize=8;curved=1;editable=1;movable=1;resizable=1;rotatable=1;deletable=1;locked=0;connectable=1;" parent="HL9u6WKw02qNyfV0WVwn-18" edge="1">
          <mxGeometry width="50" height="50" relative="1" as="geometry">
            <mxPoint x="7.363508777245024e-14" y="162.49765844520766" as="sourcePoint" />
            <mxPoint x="7.363508777245024e-14" as="targetPoint" />
          </mxGeometry>
        </mxCell>
        <mxCell id="HL9u6WKw02qNyfV0WVwn-21" value="" style="endArrow=classic;html=1;rounded=0;fontSize=12;startSize=8;endSize=8;curved=1;editable=1;movable=1;resizable=1;rotatable=1;deletable=1;locked=0;connectable=1;strokeColor=default;" parent="HL9u6WKw02qNyfV0WVwn-18" edge="1">
          <mxGeometry width="50" height="50" relative="1" as="geometry">
            <mxPoint x="7.363508777245024e-14" y="162.65000000000003" as="sourcePoint" />
            <mxPoint x="90.67815144428931" y="162.49765844520766" as="targetPoint" />
          </mxGeometry>
        </mxCell>
        <mxCell id="HL9u6WKw02qNyfV0WVwn-22" value="" style="group" parent="HL9u6WKw02qNyfV0WVwn-1" vertex="1" connectable="0">
          <mxGeometry x="270" y="587.35" width="100" height="162.65" as="geometry" />
        </mxCell>
        <mxCell id="HL9u6WKw02qNyfV0WVwn-23" value="" style="endArrow=none;html=1;rounded=0;fontSize=12;startSize=8;endSize=8;curved=1;exitX=0.224;exitY=0.311;exitDx=0;exitDy=0;exitPerimeter=0;editable=0;" parent="HL9u6WKw02qNyfV0WVwn-22" edge="1">
          <mxGeometry width="50" height="50" relative="1" as="geometry">
            <mxPoint y="0.003046831095891057" as="sourcePoint" />
            <mxPoint x="100" y="0.11171714018109412" as="targetPoint" />
            <Array as="points">
              <mxPoint x="58.787705455830206" y="0.11171714018109412" />
            </Array>
          </mxGeometry>
        </mxCell>
        <mxCell id="HL9u6WKw02qNyfV0WVwn-24" value="" style="endArrow=none;html=1;rounded=0;fontSize=12;startSize=8;endSize=8;curved=1;editable=1;movable=1;resizable=1;rotatable=1;deletable=1;locked=0;connectable=1;" parent="HL9u6WKw02qNyfV0WVwn-22" edge="1">
          <mxGeometry width="50" height="50" relative="1" as="geometry">
            <mxPoint x="6.694098888404567e-14" y="162.49765844520766" as="sourcePoint" />
            <mxPoint x="6.694098888404567e-14" as="targetPoint" />
          </mxGeometry>
        </mxCell>
        <mxCell id="HL9u6WKw02qNyfV0WVwn-25" value="" style="endArrow=classic;html=1;rounded=0;fontSize=12;startSize=8;endSize=8;curved=1;editable=1;movable=1;resizable=1;rotatable=1;deletable=1;locked=0;connectable=1;strokeColor=default;" parent="HL9u6WKw02qNyfV0WVwn-22" edge="1">
          <mxGeometry width="50" height="50" relative="1" as="geometry">
            <mxPoint x="6.694098888404567e-14" y="162.65000000000003" as="sourcePoint" />
            <mxPoint x="82.4346831311721" y="162.49765844520766" as="targetPoint" />
          </mxGeometry>
        </mxCell>
        <mxCell id="HL9u6WKw02qNyfV0WVwn-26" value="" style="group" parent="HL9u6WKw02qNyfV0WVwn-1" vertex="1" connectable="0">
          <mxGeometry x="280" y="610" width="90" height="162.65" as="geometry" />
        </mxCell>
        <mxCell id="HL9u6WKw02qNyfV0WVwn-27" value="" style="endArrow=none;html=1;rounded=0;fontSize=12;startSize=8;endSize=8;curved=1;exitX=0.224;exitY=0.311;exitDx=0;exitDy=0;exitPerimeter=0;editable=0;" parent="HL9u6WKw02qNyfV0WVwn-26" edge="1">
          <mxGeometry width="50" height="50" relative="1" as="geometry">
            <mxPoint y="0.003046831095891057" as="sourcePoint" />
            <mxPoint x="90" y="0.11171714018109412" as="targetPoint" />
            <Array as="points">
              <mxPoint x="52.90893491024719" y="0.11171714018109412" />
            </Array>
          </mxGeometry>
        </mxCell>
        <mxCell id="HL9u6WKw02qNyfV0WVwn-28" value="" style="endArrow=none;html=1;rounded=0;fontSize=12;startSize=8;endSize=8;curved=1;editable=1;movable=1;resizable=1;rotatable=1;deletable=1;locked=0;connectable=1;" parent="HL9u6WKw02qNyfV0WVwn-26" edge="1">
          <mxGeometry width="50" height="50" relative="1" as="geometry">
            <mxPoint x="6.024688999564111e-14" y="162.49765844520766" as="sourcePoint" />
            <mxPoint x="6.024688999564111e-14" as="targetPoint" />
          </mxGeometry>
        </mxCell>
        <mxCell id="HL9u6WKw02qNyfV0WVwn-29" value="" style="endArrow=classic;html=1;rounded=0;fontSize=12;startSize=8;endSize=8;curved=1;editable=1;movable=1;resizable=1;rotatable=1;deletable=1;locked=0;connectable=1;strokeColor=default;" parent="HL9u6WKw02qNyfV0WVwn-26" edge="1">
          <mxGeometry width="50" height="50" relative="1" as="geometry">
            <mxPoint x="6.024688999564111e-14" y="162.65000000000003" as="sourcePoint" />
            <mxPoint x="74.19121481805489" y="162.49765844520766" as="targetPoint" />
          </mxGeometry>
        </mxCell>
        <mxCell id="HL9u6WKw02qNyfV0WVwn-47" value="&lt;span style=&quot;font-size: 20px;&quot;&gt;&lt;b&gt;&lt;u&gt;Interfaces&lt;/u&gt;&lt;/b&gt;&lt;/span&gt;" style="shape=card;whiteSpace=wrap;html=1;rotation=-90;shadow=0;rounded=0;flipV=1;textDirection=vertical-rl;" parent="HL9u6WKw02qNyfV0WVwn-1" vertex="1">
          <mxGeometry x="601.57" y="542.65" width="106.87" height="162.5" as="geometry" />
        </mxCell>
        <mxCell id="HL9u6WKw02qNyfV0WVwn-49" value="&lt;font style=&quot;font-size: 30px;&quot;&gt;Diagrama IPO Funcional 2.0 Interfaz Empleado&lt;/font&gt;" style="text;html=1;align=center;verticalAlign=middle;whiteSpace=wrap;rounded=0;fontSize=16;fontStyle=1" parent="HL9u6WKw02qNyfV0WVwn-1" vertex="1">
          <mxGeometry x="58" y="240" width="735" height="30" as="geometry" />
        </mxCell>
        <mxCell id="Vq7Y_ADfMqDEJafvQgP_-0" value="" style="shape=step;perimeter=stepPerimeter;whiteSpace=wrap;html=1;fixedSize=1;" parent="HL9u6WKw02qNyfV0WVwn-1" vertex="1">
          <mxGeometry x="550.01" y="340" width="200" height="130" as="geometry" />
        </mxCell>
        <mxCell id="Vq7Y_ADfMqDEJafvQgP_-1" value="&lt;span style=&quot;font-size: 14px; background-color: initial;&quot;&gt;Listado de Clientes&lt;/span&gt;&lt;div&gt;&lt;span style=&quot;font-size: 14px;&quot;&gt;&amp;nbsp; &amp;nbsp;Listado de Transacciones&lt;/span&gt;&lt;/div&gt;&lt;div&gt;&lt;span style=&quot;font-size: 14px;&quot;&gt;Ayuda&lt;/span&gt;&lt;/div&gt;" style="text;html=1;align=center;verticalAlign=middle;whiteSpace=wrap;rounded=0;fontSize=16;" parent="HL9u6WKw02qNyfV0WVwn-1" vertex="1">
          <mxGeometry x="550.63" y="365" width="198.75" height="80" as="geometry" />
        </mxCell>
        <mxCell id="kRuw2Y2lJefc3SW-N8oU-0" value="&lt;span style=&quot;font-size: 14px;&quot;&gt;Credenciales&lt;/span&gt;" style="text;html=1;align=center;verticalAlign=middle;whiteSpace=wrap;rounded=0;fontSize=16;" parent="HL9u6WKw02qNyfV0WVwn-1" vertex="1">
          <mxGeometry x="230" y="340" width="90" height="20" as="geometry" />
        </mxCell>
        <mxCell id="kRuw2Y2lJefc3SW-N8oU-1" value="" style="endArrow=classic;html=1;rounded=0;fontSize=12;startSize=8;endSize=8;curved=1;" parent="HL9u6WKw02qNyfV0WVwn-1" edge="1">
          <mxGeometry width="50" height="50" relative="1" as="geometry">
            <mxPoint x="230" y="365" as="sourcePoint" />
            <mxPoint x="290" y="365" as="targetPoint" />
          </mxGeometry>
        </mxCell>
      </root>
    </mxGraphModel>
  </diagram>
  <diagram name="3.0 - Interfaz administrador" id="ttqNd0oRwgDbnTLDfRJk">
    <mxGraphModel dx="1120" dy="528" grid="1" gridSize="10" guides="1" tooltips="1" connect="1" arrows="1" fold="1" page="1" pageScale="1" pageWidth="850" pageHeight="1100" math="0" shadow="0">
      <root>
        <mxCell id="0" />
        <mxCell id="1" parent="0" />
        <mxCell id="MfOsKKgNsKtFBEqAyZmr-18" value="" style="shape=table;startSize=0;container=1;collapsible=0;childLayout=tableLayout;fontSize=16;movable=0;resizable=0;rotatable=0;deletable=0;editable=0;locked=1;connectable=0;" parent="1" vertex="1">
          <mxGeometry x="90" y="290" width="670" height="400" as="geometry" />
        </mxCell>
        <mxCell id="MfOsKKgNsKtFBEqAyZmr-19" value="" style="shape=tableRow;horizontal=0;startSize=0;swimlaneHead=0;swimlaneBody=0;strokeColor=inherit;top=0;left=0;bottom=0;right=0;collapsible=0;dropTarget=0;fillColor=none;points=[[0,0.5],[1,0.5]];portConstraint=eastwest;fontSize=16;" parent="MfOsKKgNsKtFBEqAyZmr-18" vertex="1">
          <mxGeometry width="670" height="37" as="geometry" />
        </mxCell>
        <mxCell id="MfOsKKgNsKtFBEqAyZmr-20" value="Entrada" style="shape=partialRectangle;html=1;whiteSpace=wrap;connectable=0;strokeColor=inherit;overflow=hidden;fillColor=none;top=0;left=0;bottom=0;right=0;pointerEvents=1;fontSize=20;fontStyle=1" parent="MfOsKKgNsKtFBEqAyZmr-19" vertex="1">
          <mxGeometry width="140" height="37" as="geometry">
            <mxRectangle width="140" height="37" as="alternateBounds" />
          </mxGeometry>
        </mxCell>
        <mxCell id="MfOsKKgNsKtFBEqAyZmr-21" value="Proceso" style="shape=partialRectangle;html=1;whiteSpace=wrap;connectable=0;strokeColor=inherit;overflow=hidden;fillColor=none;top=0;left=0;bottom=0;right=0;pointerEvents=1;fontSize=20;fontStyle=1" parent="MfOsKKgNsKtFBEqAyZmr-19" vertex="1">
          <mxGeometry x="140" width="307" height="37" as="geometry">
            <mxRectangle width="307" height="37" as="alternateBounds" />
          </mxGeometry>
        </mxCell>
        <mxCell id="MfOsKKgNsKtFBEqAyZmr-22" value="Salida" style="shape=partialRectangle;html=1;whiteSpace=wrap;connectable=0;strokeColor=inherit;overflow=hidden;fillColor=none;top=0;left=0;bottom=0;right=0;pointerEvents=1;fontSize=20;fontStyle=1" parent="MfOsKKgNsKtFBEqAyZmr-19" vertex="1">
          <mxGeometry x="447" width="223" height="37" as="geometry">
            <mxRectangle width="223" height="37" as="alternateBounds" />
          </mxGeometry>
        </mxCell>
        <mxCell id="MfOsKKgNsKtFBEqAyZmr-23" value="" style="shape=tableRow;horizontal=0;startSize=0;swimlaneHead=0;swimlaneBody=0;strokeColor=inherit;top=0;left=0;bottom=0;right=0;collapsible=0;dropTarget=0;fillColor=none;points=[[0,0.5],[1,0.5]];portConstraint=eastwest;fontSize=16;" parent="MfOsKKgNsKtFBEqAyZmr-18" vertex="1">
          <mxGeometry y="37" width="670" height="363" as="geometry" />
        </mxCell>
        <mxCell id="MfOsKKgNsKtFBEqAyZmr-24" value="" style="shape=partialRectangle;html=1;whiteSpace=wrap;connectable=0;strokeColor=inherit;overflow=hidden;fillColor=none;top=0;left=0;bottom=0;right=0;pointerEvents=1;fontSize=16;" parent="MfOsKKgNsKtFBEqAyZmr-23" vertex="1">
          <mxGeometry width="140" height="363" as="geometry">
            <mxRectangle width="140" height="363" as="alternateBounds" />
          </mxGeometry>
        </mxCell>
        <mxCell id="MfOsKKgNsKtFBEqAyZmr-25" value="" style="shape=partialRectangle;html=1;whiteSpace=wrap;connectable=0;strokeColor=inherit;overflow=hidden;fillColor=none;top=0;left=0;bottom=0;right=0;pointerEvents=1;fontSize=16;" parent="MfOsKKgNsKtFBEqAyZmr-23" vertex="1">
          <mxGeometry x="140" width="307" height="363" as="geometry">
            <mxRectangle width="307" height="363" as="alternateBounds" />
          </mxGeometry>
        </mxCell>
        <mxCell id="MfOsKKgNsKtFBEqAyZmr-26" value="" style="shape=partialRectangle;html=1;whiteSpace=wrap;connectable=0;strokeColor=inherit;overflow=hidden;fillColor=none;top=0;left=0;bottom=0;right=0;pointerEvents=1;fontSize=16;" parent="MfOsKKgNsKtFBEqAyZmr-23" vertex="1">
          <mxGeometry x="447" width="223" height="363" as="geometry">
            <mxRectangle width="223" height="363" as="alternateBounds" />
          </mxGeometry>
        </mxCell>
        <mxCell id="KWBp8Ff-leWhCxw3goAb-1" value="&lt;b&gt;&lt;u&gt;&lt;font style=&quot;font-size: 16px;&quot;&gt;camicandy&lt;/font&gt;&lt;/u&gt;&lt;/b&gt;" style="shape=cylinder3;whiteSpace=wrap;html=1;boundedLbl=1;backgroundOutline=1;size=15;" parent="1" vertex="1">
          <mxGeometry x="100" y="450" width="120" height="110" as="geometry" />
        </mxCell>
        <mxCell id="KWBp8Ff-leWhCxw3goAb-8" value="" style="html=1;shadow=0;dashed=0;align=center;verticalAlign=middle;shape=mxgraph.arrows2.arrow;dy=0.6;dx=40;notch=0;rotation=90;" parent="1" vertex="1">
          <mxGeometry x="620.94" y="508" width="59.37" height="42.5" as="geometry" />
        </mxCell>
        <mxCell id="KWBp8Ff-leWhCxw3goAb-9" value="" style="html=1;shadow=0;dashed=0;align=center;verticalAlign=middle;shape=mxgraph.arrows2.arrow;dy=0.6;dx=40;notch=0;rotation=0;" parent="1" vertex="1">
          <mxGeometry x="510" y="504.25" width="80" height="50" as="geometry" />
        </mxCell>
        <mxCell id="KWBp8Ff-leWhCxw3goAb-14" value="&lt;ul style=&quot;line-height: 150%; font-size: 14px;&quot;&gt;&lt;li&gt;Productos&lt;/li&gt;&lt;li&gt;Clientes&lt;/li&gt;&lt;li&gt;Proveedores&lt;/li&gt;&lt;li&gt;Transacciones&lt;/li&gt;&lt;li&gt;Herramientas&lt;/li&gt;&lt;li&gt;Ayuda&lt;/li&gt;&lt;li&gt;Reportes&lt;/li&gt;&lt;/ul&gt;" style="text;html=1;align=center;verticalAlign=middle;whiteSpace=wrap;rounded=0;fontSize=16;" parent="1" vertex="1">
          <mxGeometry x="347" y="524" width="140" height="150" as="geometry" />
        </mxCell>
        <mxCell id="KWBp8Ff-leWhCxw3goAb-29" value="&lt;font style=&quot;font-size: 14px;&quot;&gt;Ver diagrama 7.0&lt;/font&gt;&lt;div&gt;&lt;span style=&quot;font-size: 14px;&quot;&gt;Ver diagrama 4.0&lt;/span&gt;&lt;/div&gt;&lt;div&gt;&lt;span style=&quot;font-size: 14px; background-color: initial;&quot;&gt;Ver diagram&lt;/span&gt;&lt;span style=&quot;color: rgba(0, 0, 0, 0); font-family: monospace; font-size: 0px; text-align: start; text-wrap: nowrap; background-color: initial;&quot;&gt;hModel%3E%3Croot%3E%3CmxCell%20id%3D%220%22%2F%3E%3CmxCell%20id%3D%221%22%20parent%3D%220%22%2F%3E%3CmxCell%20id%3D%222%22%20value%3D%22%22%20style%3D%22endArrow%3Dnone%3Bhtml%3D1%3Brounded%3D0%3BfontSize%3D12%3BstartSize%3D8%3BendSize%3D8%3Bcurved%3D1%3BexitX%3D0.224%3BexitY%3D0.311%3BexitDx%3D0%3BexitDy%3D0%3BexitPerimeter%3D0%3B%22%20edge%3D%221%22%20parent%3D%221%22%3E%3CmxGeometry%20width%3D%2250%22%20height%3D%2250%22%20relative%3D%221%22%20as%3D%22geometry%22%3E%3CmxPoint%20x%3D%22240%22%20y%3D%22440%22%20as%3D%22sourcePoint%22%2F%3E%3CmxPoint%20x%3D%22324.99571428571426%22%20y%3D%22440%22%20as%3D%22targetPoint%22%2F%3E%3C%2FmxGeometry%3E%3C%2FmxCell%3E%3C%2Froot%3E%3C%2FmxGraphModel%3E&lt;/span&gt;&lt;span style=&quot;background-color: initial; font-size: 14px;&quot;&gt;a 9.0&lt;/span&gt;&lt;/div&gt;&lt;div&gt;&lt;span style=&quot;font-size: 14px;&quot;&gt;Ver diagrama 10.0&amp;nbsp;&lt;/span&gt;&lt;br&gt;&lt;/div&gt;&lt;div&gt;&lt;span style=&quot;font-size: 14px;&quot;&gt;Ver diagrama 11.0&lt;/span&gt;&lt;br&gt;&lt;/div&gt;&lt;div&gt;&lt;span style=&quot;font-size: 14px;&quot;&gt;Ver diagrama 6.0&lt;/span&gt;&lt;br&gt;&lt;/div&gt;&lt;div&gt;&lt;span style=&quot;font-size: 14px;&quot;&gt;Ver diagrama 13.0&lt;/span&gt;&lt;span style=&quot;font-size: 14px;&quot;&gt;&lt;br&gt;&lt;/span&gt;&lt;/div&gt;&lt;div&gt;&lt;font style=&quot;font-size: 14px;&quot;&gt;&lt;br&gt;&lt;/font&gt;&lt;/div&gt;" style="text;html=1;align=center;verticalAlign=middle;whiteSpace=wrap;rounded=0;fontSize=16;" parent="1" vertex="1">
          <mxGeometry x="352" y="696.5" width="135" height="142.5" as="geometry" />
        </mxCell>
        <mxCell id="KWBp8Ff-leWhCxw3goAb-42" value="" style="group" parent="1" vertex="1" connectable="0">
          <mxGeometry x="252" y="539" width="110" height="162.65" as="geometry" />
        </mxCell>
        <mxCell id="KWBp8Ff-leWhCxw3goAb-15" value="" style="endArrow=none;html=1;rounded=0;fontSize=12;startSize=8;endSize=8;curved=1;exitX=0.224;exitY=0.311;exitDx=0;exitDy=0;exitPerimeter=0;editable=0;" parent="KWBp8Ff-leWhCxw3goAb-42" edge="1">
          <mxGeometry width="50" height="50" relative="1" as="geometry">
            <mxPoint y="0.003046831095891057" as="sourcePoint" />
            <mxPoint x="110" y="0.11171714018109412" as="targetPoint" />
            <Array as="points">
              <mxPoint x="64.66647600141323" y="0.11171714018109412" />
            </Array>
          </mxGeometry>
        </mxCell>
        <mxCell id="KWBp8Ff-leWhCxw3goAb-16" value="" style="endArrow=none;html=1;rounded=0;fontSize=12;startSize=8;endSize=8;curved=1;editable=1;movable=1;resizable=1;rotatable=1;deletable=1;locked=0;connectable=1;" parent="KWBp8Ff-leWhCxw3goAb-42" edge="1">
          <mxGeometry width="50" height="50" relative="1" as="geometry">
            <mxPoint x="7.363508777245024e-14" y="162.49765844520766" as="sourcePoint" />
            <mxPoint x="7.363508777245024e-14" as="targetPoint" />
          </mxGeometry>
        </mxCell>
        <mxCell id="KWBp8Ff-leWhCxw3goAb-22" value="" style="endArrow=classic;html=1;rounded=0;fontSize=12;startSize=8;endSize=8;curved=1;editable=1;movable=1;resizable=1;rotatable=1;deletable=1;locked=0;connectable=1;strokeColor=default;" parent="KWBp8Ff-leWhCxw3goAb-42" edge="1">
          <mxGeometry width="50" height="50" relative="1" as="geometry">
            <mxPoint x="7.363508777245024e-14" y="162.65000000000003" as="sourcePoint" />
            <mxPoint x="90.67815144428931" y="162.49765844520766" as="targetPoint" />
          </mxGeometry>
        </mxCell>
        <mxCell id="KWBp8Ff-leWhCxw3goAb-51" value="" style="group" parent="1" vertex="1" connectable="0">
          <mxGeometry x="262" y="556.35" width="100" height="162.65" as="geometry" />
        </mxCell>
        <mxCell id="KWBp8Ff-leWhCxw3goAb-52" value="" style="endArrow=none;html=1;rounded=0;fontSize=12;startSize=8;endSize=8;curved=1;exitX=0.224;exitY=0.311;exitDx=0;exitDy=0;exitPerimeter=0;editable=0;" parent="KWBp8Ff-leWhCxw3goAb-51" edge="1">
          <mxGeometry width="50" height="50" relative="1" as="geometry">
            <mxPoint y="0.003046831095891057" as="sourcePoint" />
            <mxPoint x="100" y="0.11171714018109412" as="targetPoint" />
            <Array as="points">
              <mxPoint x="58.787705455830206" y="0.11171714018109412" />
            </Array>
          </mxGeometry>
        </mxCell>
        <mxCell id="KWBp8Ff-leWhCxw3goAb-53" value="" style="endArrow=none;html=1;rounded=0;fontSize=12;startSize=8;endSize=8;curved=1;editable=1;movable=1;resizable=1;rotatable=1;deletable=1;locked=0;connectable=1;" parent="KWBp8Ff-leWhCxw3goAb-51" edge="1">
          <mxGeometry width="50" height="50" relative="1" as="geometry">
            <mxPoint x="6.694098888404567e-14" y="162.49765844520766" as="sourcePoint" />
            <mxPoint x="6.694098888404567e-14" as="targetPoint" />
          </mxGeometry>
        </mxCell>
        <mxCell id="KWBp8Ff-leWhCxw3goAb-54" value="" style="endArrow=classic;html=1;rounded=0;fontSize=12;startSize=8;endSize=8;curved=1;editable=1;movable=1;resizable=1;rotatable=1;deletable=1;locked=0;connectable=1;strokeColor=default;" parent="KWBp8Ff-leWhCxw3goAb-51" edge="1">
          <mxGeometry width="50" height="50" relative="1" as="geometry">
            <mxPoint x="6.694098888404567e-14" y="162.65000000000003" as="sourcePoint" />
            <mxPoint x="82.4346831311721" y="162.49765844520766" as="targetPoint" />
          </mxGeometry>
        </mxCell>
        <mxCell id="KWBp8Ff-leWhCxw3goAb-63" value="" style="group" parent="1" vertex="1" connectable="0">
          <mxGeometry x="272" y="579" width="90" height="162.65" as="geometry" />
        </mxCell>
        <mxCell id="KWBp8Ff-leWhCxw3goAb-64" value="" style="endArrow=none;html=1;rounded=0;fontSize=12;startSize=8;endSize=8;curved=1;exitX=0.224;exitY=0.311;exitDx=0;exitDy=0;exitPerimeter=0;editable=0;" parent="KWBp8Ff-leWhCxw3goAb-63" edge="1">
          <mxGeometry width="50" height="50" relative="1" as="geometry">
            <mxPoint y="0.003046831095891057" as="sourcePoint" />
            <mxPoint x="90" y="0.11171714018109412" as="targetPoint" />
            <Array as="points">
              <mxPoint x="52.90893491024719" y="0.11171714018109412" />
            </Array>
          </mxGeometry>
        </mxCell>
        <mxCell id="KWBp8Ff-leWhCxw3goAb-65" value="" style="endArrow=none;html=1;rounded=0;fontSize=12;startSize=8;endSize=8;curved=1;editable=1;movable=1;resizable=1;rotatable=1;deletable=1;locked=0;connectable=1;" parent="KWBp8Ff-leWhCxw3goAb-63" edge="1">
          <mxGeometry width="50" height="50" relative="1" as="geometry">
            <mxPoint x="6.024688999564111e-14" y="162.49765844520766" as="sourcePoint" />
            <mxPoint x="6.024688999564111e-14" as="targetPoint" />
          </mxGeometry>
        </mxCell>
        <mxCell id="KWBp8Ff-leWhCxw3goAb-66" value="" style="endArrow=classic;html=1;rounded=0;fontSize=12;startSize=8;endSize=8;curved=1;editable=1;movable=1;resizable=1;rotatable=1;deletable=1;locked=0;connectable=1;strokeColor=default;" parent="KWBp8Ff-leWhCxw3goAb-63" edge="1">
          <mxGeometry width="50" height="50" relative="1" as="geometry">
            <mxPoint x="6.024688999564111e-14" y="162.65000000000003" as="sourcePoint" />
            <mxPoint x="74.19121481805489" y="162.49765844520766" as="targetPoint" />
          </mxGeometry>
        </mxCell>
        <mxCell id="KWBp8Ff-leWhCxw3goAb-67" value="" style="group" parent="1" vertex="1" connectable="0">
          <mxGeometry x="282" y="599" width="80" height="160" as="geometry" />
        </mxCell>
        <mxCell id="KWBp8Ff-leWhCxw3goAb-68" value="" style="endArrow=none;html=1;rounded=0;fontSize=12;startSize=8;endSize=8;curved=1;exitX=0.224;exitY=0.311;exitDx=0;exitDy=0;exitPerimeter=0;editable=0;" parent="KWBp8Ff-leWhCxw3goAb-67" edge="1">
          <mxGeometry width="50" height="50" relative="1" as="geometry">
            <mxPoint y="0.0029971901342918483" as="sourcePoint" />
            <mxPoint x="80" y="0.10989697158914884" as="targetPoint" />
            <Array as="points">
              <mxPoint x="47.03016436466417" y="0.10989697158914884" />
            </Array>
          </mxGeometry>
        </mxCell>
        <mxCell id="KWBp8Ff-leWhCxw3goAb-69" value="" style="endArrow=none;html=1;rounded=0;fontSize=12;startSize=8;endSize=8;curved=1;editable=1;movable=1;resizable=1;rotatable=1;deletable=1;locked=0;connectable=1;" parent="KWBp8Ff-leWhCxw3goAb-67" edge="1">
          <mxGeometry width="50" height="50" relative="1" as="geometry">
            <mxPoint x="5.355279110723654e-14" y="159.85014049328757" as="sourcePoint" />
            <mxPoint x="5.355279110723654e-14" as="targetPoint" />
          </mxGeometry>
        </mxCell>
        <mxCell id="KWBp8Ff-leWhCxw3goAb-70" value="" style="endArrow=classic;html=1;rounded=0;fontSize=12;startSize=8;endSize=8;curved=1;editable=1;movable=1;resizable=1;rotatable=1;deletable=1;locked=0;connectable=1;strokeColor=default;" parent="KWBp8Ff-leWhCxw3goAb-67" edge="1">
          <mxGeometry width="50" height="50" relative="1" as="geometry">
            <mxPoint x="5.355279110723654e-14" y="160.00000000000003" as="sourcePoint" />
            <mxPoint x="65.94774650493767" y="159.85014049328757" as="targetPoint" />
          </mxGeometry>
        </mxCell>
        <mxCell id="KWBp8Ff-leWhCxw3goAb-71" value="" style="group" parent="1" vertex="1" connectable="0">
          <mxGeometry x="292" y="619" width="70" height="160" as="geometry" />
        </mxCell>
        <mxCell id="KWBp8Ff-leWhCxw3goAb-72" value="" style="endArrow=none;html=1;rounded=0;fontSize=12;startSize=8;endSize=8;curved=1;exitX=0.224;exitY=0.311;exitDx=0;exitDy=0;exitPerimeter=0;editable=0;" parent="KWBp8Ff-leWhCxw3goAb-71" edge="1">
          <mxGeometry width="50" height="50" relative="1" as="geometry">
            <mxPoint y="0.0029971901342918483" as="sourcePoint" />
            <mxPoint x="70" y="0.10989697158914884" as="targetPoint" />
            <Array as="points">
              <mxPoint x="41.15139381908114" y="0.10989697158914884" />
            </Array>
          </mxGeometry>
        </mxCell>
        <mxCell id="KWBp8Ff-leWhCxw3goAb-73" value="" style="endArrow=none;html=1;rounded=0;fontSize=12;startSize=8;endSize=8;curved=1;editable=1;movable=1;resizable=1;rotatable=1;deletable=1;locked=0;connectable=1;" parent="KWBp8Ff-leWhCxw3goAb-71" edge="1">
          <mxGeometry width="50" height="50" relative="1" as="geometry">
            <mxPoint x="4.685869221883197e-14" y="159.85014049328757" as="sourcePoint" />
            <mxPoint x="4.685869221883197e-14" as="targetPoint" />
          </mxGeometry>
        </mxCell>
        <mxCell id="KWBp8Ff-leWhCxw3goAb-74" value="" style="endArrow=classic;html=1;rounded=0;fontSize=12;startSize=8;endSize=8;curved=1;editable=1;movable=1;resizable=1;rotatable=1;deletable=1;locked=0;connectable=1;strokeColor=default;" parent="KWBp8Ff-leWhCxw3goAb-71" edge="1">
          <mxGeometry width="50" height="50" relative="1" as="geometry">
            <mxPoint x="4.685869221883197e-14" y="160.00000000000003" as="sourcePoint" />
            <mxPoint x="57.704278191820464" y="159.85014049328757" as="targetPoint" />
          </mxGeometry>
        </mxCell>
        <mxCell id="KWBp8Ff-leWhCxw3goAb-76" value="" style="group" parent="1" vertex="1" connectable="0">
          <mxGeometry x="302" y="639" width="60" height="160" as="geometry" />
        </mxCell>
        <mxCell id="KWBp8Ff-leWhCxw3goAb-77" value="" style="endArrow=none;html=1;rounded=0;fontSize=12;startSize=8;endSize=8;curved=1;exitX=0.224;exitY=0.311;exitDx=0;exitDy=0;exitPerimeter=0;editable=0;" parent="KWBp8Ff-leWhCxw3goAb-76" edge="1">
          <mxGeometry width="50" height="50" relative="1" as="geometry">
            <mxPoint y="0.0029971901342918483" as="sourcePoint" />
            <mxPoint x="60" y="0.10989697158914884" as="targetPoint" />
            <Array as="points">
              <mxPoint x="35.27262327349812" y="0.10989697158914884" />
            </Array>
          </mxGeometry>
        </mxCell>
        <mxCell id="KWBp8Ff-leWhCxw3goAb-78" value="" style="endArrow=none;html=1;rounded=0;fontSize=12;startSize=8;endSize=8;curved=1;editable=1;movable=1;resizable=1;rotatable=1;deletable=1;locked=0;connectable=1;" parent="KWBp8Ff-leWhCxw3goAb-76" edge="1">
          <mxGeometry width="50" height="50" relative="1" as="geometry">
            <mxPoint x="4.01645933304274e-14" y="159.85014049328757" as="sourcePoint" />
            <mxPoint x="4.01645933304274e-14" as="targetPoint" />
          </mxGeometry>
        </mxCell>
        <mxCell id="KWBp8Ff-leWhCxw3goAb-79" value="" style="endArrow=classic;html=1;rounded=0;fontSize=12;startSize=8;endSize=8;curved=1;editable=1;movable=1;resizable=1;rotatable=1;deletable=1;locked=0;connectable=1;strokeColor=default;" parent="KWBp8Ff-leWhCxw3goAb-76" edge="1">
          <mxGeometry width="50" height="50" relative="1" as="geometry">
            <mxPoint x="4.01645933304274e-14" y="160.00000000000003" as="sourcePoint" />
            <mxPoint x="49.46080987870325" y="159.85014049328757" as="targetPoint" />
          </mxGeometry>
        </mxCell>
        <mxCell id="KWBp8Ff-leWhCxw3goAb-80" value="" style="group" parent="1" vertex="1" connectable="0">
          <mxGeometry x="312" y="659" width="50" height="160" as="geometry" />
        </mxCell>
        <mxCell id="KWBp8Ff-leWhCxw3goAb-81" value="" style="endArrow=none;html=1;rounded=0;fontSize=12;startSize=8;endSize=8;curved=1;exitX=0.224;exitY=0.311;exitDx=0;exitDy=0;exitPerimeter=0;editable=0;" parent="KWBp8Ff-leWhCxw3goAb-80" edge="1">
          <mxGeometry width="50" height="50" relative="1" as="geometry">
            <mxPoint y="0.0029971901342918483" as="sourcePoint" />
            <mxPoint x="50" y="0.10989697158914884" as="targetPoint" />
            <Array as="points">
              <mxPoint x="29.3938527279151" y="0.10989697158914884" />
            </Array>
          </mxGeometry>
        </mxCell>
        <mxCell id="KWBp8Ff-leWhCxw3goAb-82" value="" style="endArrow=none;html=1;rounded=0;fontSize=12;startSize=8;endSize=8;curved=1;editable=1;movable=1;resizable=1;rotatable=1;deletable=1;locked=0;connectable=1;" parent="KWBp8Ff-leWhCxw3goAb-80" edge="1">
          <mxGeometry width="50" height="50" relative="1" as="geometry">
            <mxPoint x="3.3470494442022836e-14" y="159.85014049328757" as="sourcePoint" />
            <mxPoint x="3.3470494442022836e-14" as="targetPoint" />
          </mxGeometry>
        </mxCell>
        <mxCell id="KWBp8Ff-leWhCxw3goAb-83" value="" style="endArrow=classic;html=1;rounded=0;fontSize=12;startSize=8;endSize=8;curved=1;editable=1;movable=1;resizable=1;rotatable=1;deletable=1;locked=0;connectable=1;strokeColor=default;" parent="KWBp8Ff-leWhCxw3goAb-80" edge="1">
          <mxGeometry width="50" height="50" relative="1" as="geometry">
            <mxPoint x="3.3470494442022836e-14" y="160.00000000000003" as="sourcePoint" />
            <mxPoint x="41.21734156558605" y="159.85014049328757" as="targetPoint" />
          </mxGeometry>
        </mxCell>
        <mxCell id="KWBp8Ff-leWhCxw3goAb-85" value="" style="shape=step;perimeter=stepPerimeter;whiteSpace=wrap;html=1;fixedSize=1;" parent="1" vertex="1">
          <mxGeometry x="550" y="335" width="200" height="150" as="geometry" />
        </mxCell>
        <mxCell id="KWBp8Ff-leWhCxw3goAb-87" value="&lt;span style=&quot;font-size: 20px;&quot;&gt;&lt;b&gt;&lt;u&gt;Interfaces&lt;/u&gt;&lt;/b&gt;&lt;/span&gt;" style="shape=card;whiteSpace=wrap;html=1;rotation=-90;shadow=0;rounded=0;flipV=1;textDirection=vertical-rl;" parent="1" vertex="1">
          <mxGeometry x="601.57" y="542.65" width="106.87" height="162.5" as="geometry" />
        </mxCell>
        <mxCell id="KWBp8Ff-leWhCxw3goAb-89" value="&lt;span style=&quot;font-size: 14px;&quot;&gt;Listado de Productos&lt;/span&gt;&lt;div&gt;&lt;span style=&quot;font-size: 14px;&quot;&gt;Listado de Clientes&lt;/span&gt;&lt;/div&gt;&lt;div&gt;&lt;span style=&quot;font-size: 14px;&quot;&gt;Listado de Proveedores&lt;/span&gt;&lt;/div&gt;&lt;div&gt;&lt;span style=&quot;font-size: 14px;&quot;&gt;Listado de Transacciones&lt;/span&gt;&lt;/div&gt;&lt;div&gt;&lt;span style=&quot;font-size: 14px;&quot;&gt;Herramientas&lt;/span&gt;&lt;/div&gt;&lt;div&gt;&lt;span style=&quot;font-size: 14px;&quot;&gt;Ayuda&lt;/span&gt;&lt;/div&gt;&lt;div&gt;&lt;span style=&quot;font-size: 14px;&quot;&gt;Reportes&lt;/span&gt;&lt;/div&gt;" style="text;html=1;align=center;verticalAlign=middle;whiteSpace=wrap;rounded=0;fontSize=16;" parent="1" vertex="1">
          <mxGeometry x="551.25" y="369" width="198.75" height="80" as="geometry" />
        </mxCell>
        <mxCell id="KWBp8Ff-leWhCxw3goAb-93" value="&lt;font style=&quot;font-size: 30px;&quot;&gt;Diagrama IPO Funcional 3.0 Interfaz Administrador&lt;/font&gt;" style="text;html=1;align=center;verticalAlign=middle;whiteSpace=wrap;rounded=0;fontSize=16;fontStyle=1" parent="1" vertex="1">
          <mxGeometry x="50" y="240" width="750" height="30" as="geometry" />
        </mxCell>
        <mxCell id="xiJUD9L3WQJpNlmdi2nc-1" value="&lt;span style=&quot;font-size: 14px;&quot;&gt;Credenciales&lt;/span&gt;" style="text;html=1;align=center;verticalAlign=middle;whiteSpace=wrap;rounded=0;fontSize=16;" vertex="1" parent="1">
          <mxGeometry x="230" y="340" width="90" height="20" as="geometry" />
        </mxCell>
        <mxCell id="xiJUD9L3WQJpNlmdi2nc-2" value="" style="endArrow=classic;html=1;rounded=0;fontSize=12;startSize=8;endSize=8;curved=1;" edge="1" parent="1">
          <mxGeometry width="50" height="50" relative="1" as="geometry">
            <mxPoint x="230" y="365" as="sourcePoint" />
            <mxPoint x="290" y="365" as="targetPoint" />
          </mxGeometry>
        </mxCell>
      </root>
    </mxGraphModel>
  </diagram>
  <diagram name="4.0 - Clientes" id="Bf5p8D_PbM6uui4GfsVJ">
    <mxGraphModel dx="1120" dy="528" grid="1" gridSize="10" guides="1" tooltips="1" connect="1" arrows="1" fold="1" page="1" pageScale="1" pageWidth="850" pageHeight="1100" math="0" shadow="0">
      <root>
        <mxCell id="sI1xDKinAnpDUNDU7N1I-0" />
        <mxCell id="sI1xDKinAnpDUNDU7N1I-1" parent="sI1xDKinAnpDUNDU7N1I-0" />
        <mxCell id="sI1xDKinAnpDUNDU7N1I-2" value="" style="shape=table;startSize=0;container=1;collapsible=0;childLayout=tableLayout;fontSize=16;movable=0;resizable=0;rotatable=0;deletable=0;editable=0;locked=1;connectable=0;" parent="sI1xDKinAnpDUNDU7N1I-1" vertex="1">
          <mxGeometry x="90" y="290" width="670" height="400" as="geometry" />
        </mxCell>
        <mxCell id="sI1xDKinAnpDUNDU7N1I-3" value="" style="shape=tableRow;horizontal=0;startSize=0;swimlaneHead=0;swimlaneBody=0;strokeColor=inherit;top=0;left=0;bottom=0;right=0;collapsible=0;dropTarget=0;fillColor=none;points=[[0,0.5],[1,0.5]];portConstraint=eastwest;fontSize=16;" parent="sI1xDKinAnpDUNDU7N1I-2" vertex="1">
          <mxGeometry width="670" height="37" as="geometry" />
        </mxCell>
        <mxCell id="sI1xDKinAnpDUNDU7N1I-4" value="Entrada" style="shape=partialRectangle;html=1;whiteSpace=wrap;connectable=0;strokeColor=inherit;overflow=hidden;fillColor=none;top=0;left=0;bottom=0;right=0;pointerEvents=1;fontSize=20;fontStyle=1" parent="sI1xDKinAnpDUNDU7N1I-3" vertex="1">
          <mxGeometry width="140" height="37" as="geometry">
            <mxRectangle width="140" height="37" as="alternateBounds" />
          </mxGeometry>
        </mxCell>
        <mxCell id="sI1xDKinAnpDUNDU7N1I-5" value="Proceso" style="shape=partialRectangle;html=1;whiteSpace=wrap;connectable=0;strokeColor=inherit;overflow=hidden;fillColor=none;top=0;left=0;bottom=0;right=0;pointerEvents=1;fontSize=20;fontStyle=1" parent="sI1xDKinAnpDUNDU7N1I-3" vertex="1">
          <mxGeometry x="140" width="307" height="37" as="geometry">
            <mxRectangle width="307" height="37" as="alternateBounds" />
          </mxGeometry>
        </mxCell>
        <mxCell id="sI1xDKinAnpDUNDU7N1I-6" value="Salida" style="shape=partialRectangle;html=1;whiteSpace=wrap;connectable=0;strokeColor=inherit;overflow=hidden;fillColor=none;top=0;left=0;bottom=0;right=0;pointerEvents=1;fontSize=20;fontStyle=1" parent="sI1xDKinAnpDUNDU7N1I-3" vertex="1">
          <mxGeometry x="447" width="223" height="37" as="geometry">
            <mxRectangle width="223" height="37" as="alternateBounds" />
          </mxGeometry>
        </mxCell>
        <mxCell id="sI1xDKinAnpDUNDU7N1I-7" value="" style="shape=tableRow;horizontal=0;startSize=0;swimlaneHead=0;swimlaneBody=0;strokeColor=inherit;top=0;left=0;bottom=0;right=0;collapsible=0;dropTarget=0;fillColor=none;points=[[0,0.5],[1,0.5]];portConstraint=eastwest;fontSize=16;" parent="sI1xDKinAnpDUNDU7N1I-2" vertex="1">
          <mxGeometry y="37" width="670" height="363" as="geometry" />
        </mxCell>
        <mxCell id="sI1xDKinAnpDUNDU7N1I-8" value="" style="shape=partialRectangle;html=1;whiteSpace=wrap;connectable=0;strokeColor=inherit;overflow=hidden;fillColor=none;top=0;left=0;bottom=0;right=0;pointerEvents=1;fontSize=16;" parent="sI1xDKinAnpDUNDU7N1I-7" vertex="1">
          <mxGeometry width="140" height="363" as="geometry">
            <mxRectangle width="140" height="363" as="alternateBounds" />
          </mxGeometry>
        </mxCell>
        <mxCell id="sI1xDKinAnpDUNDU7N1I-9" value="" style="shape=partialRectangle;html=1;whiteSpace=wrap;connectable=0;strokeColor=inherit;overflow=hidden;fillColor=none;top=0;left=0;bottom=0;right=0;pointerEvents=1;fontSize=16;" parent="sI1xDKinAnpDUNDU7N1I-7" vertex="1">
          <mxGeometry x="140" width="307" height="363" as="geometry">
            <mxRectangle width="307" height="363" as="alternateBounds" />
          </mxGeometry>
        </mxCell>
        <mxCell id="sI1xDKinAnpDUNDU7N1I-10" value="" style="shape=partialRectangle;html=1;whiteSpace=wrap;connectable=0;strokeColor=inherit;overflow=hidden;fillColor=none;top=0;left=0;bottom=0;right=0;pointerEvents=1;fontSize=16;" parent="sI1xDKinAnpDUNDU7N1I-7" vertex="1">
          <mxGeometry x="447" width="223" height="363" as="geometry">
            <mxRectangle width="223" height="363" as="alternateBounds" />
          </mxGeometry>
        </mxCell>
        <mxCell id="sI1xDKinAnpDUNDU7N1I-11" value="&lt;span style=&quot;font-size: 16px;&quot;&gt;&lt;b&gt;&lt;u&gt;clientes&lt;/u&gt;&lt;/b&gt;&lt;/span&gt;" style="shape=cylinder3;whiteSpace=wrap;html=1;boundedLbl=1;backgroundOutline=1;size=15;" parent="sI1xDKinAnpDUNDU7N1I-1" vertex="1">
          <mxGeometry x="100" y="450" width="120" height="110" as="geometry" />
        </mxCell>
        <mxCell id="sI1xDKinAnpDUNDU7N1I-12" value="" style="endArrow=classic;html=1;rounded=0;fontSize=12;startSize=8;endSize=8;curved=1;exitX=0.388;exitY=0.449;exitDx=0;exitDy=0;exitPerimeter=0;" parent="sI1xDKinAnpDUNDU7N1I-1" edge="1">
          <mxGeometry width="50" height="50" relative="1" as="geometry">
            <mxPoint x="229.99999999999983" y="389.99699999999996" as="sourcePoint" />
            <mxPoint x="310.04" y="390.01" as="targetPoint" />
          </mxGeometry>
        </mxCell>
        <mxCell id="sI1xDKinAnpDUNDU7N1I-13" value="Ingreso del usuario" style="text;html=1;align=center;verticalAlign=middle;whiteSpace=wrap;rounded=0;fontSize=16;" parent="sI1xDKinAnpDUNDU7N1I-1" vertex="1">
          <mxGeometry x="210" y="360" width="200" height="30" as="geometry" />
        </mxCell>
        <mxCell id="sI1xDKinAnpDUNDU7N1I-14" value="" style="html=1;shadow=0;dashed=0;align=center;verticalAlign=middle;shape=mxgraph.arrows2.arrow;dy=0.6;dx=40;notch=0;rotation=90;" parent="sI1xDKinAnpDUNDU7N1I-1" vertex="1">
          <mxGeometry x="610.63" y="496" width="80" height="52.5" as="geometry" />
        </mxCell>
        <mxCell id="sI1xDKinAnpDUNDU7N1I-15" value="" style="html=1;shadow=0;dashed=0;align=center;verticalAlign=middle;shape=mxgraph.arrows2.arrow;dy=0.6;dx=40;notch=0;rotation=0;" parent="sI1xDKinAnpDUNDU7N1I-1" vertex="1">
          <mxGeometry x="510" y="487.5" width="80" height="50" as="geometry" />
        </mxCell>
        <mxCell id="sI1xDKinAnpDUNDU7N1I-16" value="&lt;font style=&quot;font-size: 18px;&quot;&gt;Datos del cliente&lt;/font&gt;" style="shape=step;perimeter=stepPerimeter;whiteSpace=wrap;html=1;fixedSize=1;" parent="sI1xDKinAnpDUNDU7N1I-1" vertex="1">
          <mxGeometry x="550" y="340" width="200" height="130" as="geometry" />
        </mxCell>
        <mxCell id="sI1xDKinAnpDUNDU7N1I-17" value="&lt;span style=&quot;font-size: 20px;&quot;&gt;&lt;b&gt;&lt;u&gt;Reportes&lt;/u&gt;&lt;/b&gt;&lt;/span&gt;" style="shape=card;whiteSpace=wrap;html=1;rotation=-90;shadow=0;rounded=0;flipV=1;textDirection=vertical-rl;" parent="sI1xDKinAnpDUNDU7N1I-1" vertex="1">
          <mxGeometry x="601.57" y="542.65" width="106.87" height="162.5" as="geometry" />
        </mxCell>
        <mxCell id="sI1xDKinAnpDUNDU7N1I-18" value="&lt;font style=&quot;font-size: 30px;&quot;&gt;Diagrama IPO Funcional 4.0 Clientes&lt;/font&gt;" style="text;html=1;align=center;verticalAlign=middle;whiteSpace=wrap;rounded=0;fontSize=16;fontStyle=1" parent="sI1xDKinAnpDUNDU7N1I-1" vertex="1">
          <mxGeometry x="58" y="240" width="735" height="30" as="geometry" />
        </mxCell>
        <mxCell id="sI1xDKinAnpDUNDU7N1I-19" value="&lt;ul style=&quot;font-size: 20px;&quot;&gt;&lt;li&gt;&lt;span style=&quot;&quot;&gt;Agregar&lt;/span&gt;&lt;/li&gt;&lt;li&gt;&lt;span style=&quot;&quot;&gt;Consultar&lt;/span&gt;&lt;/li&gt;&lt;ul&gt;&lt;li&gt;&lt;span style=&quot;&quot;&gt;Nombre&lt;/span&gt;&lt;/li&gt;&lt;li&gt;Cédula&lt;/li&gt;&lt;/ul&gt;&lt;li&gt;&lt;span style=&quot;&quot;&gt;Modificar&lt;/span&gt;&lt;/li&gt;&lt;li&gt;&lt;span style=&quot;&quot;&gt;Eliminar&lt;/span&gt;&lt;/li&gt;&lt;/ul&gt;" style="text;html=1;align=center;verticalAlign=middle;whiteSpace=wrap;rounded=0;fontSize=16;" parent="sI1xDKinAnpDUNDU7N1I-1" vertex="1">
          <mxGeometry x="220" y="405" width="260" height="200" as="geometry" />
        </mxCell>
      </root>
    </mxGraphModel>
  </diagram>
  <diagram name="5.0 - Transacciones (empleado)" id="v70O-mlJXad-gz2d4cIi">
    <mxGraphModel dx="1120" dy="528" grid="1" gridSize="10" guides="1" tooltips="1" connect="1" arrows="1" fold="1" page="1" pageScale="1" pageWidth="850" pageHeight="1100" math="0" shadow="0">
      <root>
        <mxCell id="lG04s7_ZPw4Fn0zdNkw--0" />
        <mxCell id="lG04s7_ZPw4Fn0zdNkw--1" parent="lG04s7_ZPw4Fn0zdNkw--0" />
        <mxCell id="lG04s7_ZPw4Fn0zdNkw--2" value="" style="shape=table;startSize=0;container=1;collapsible=0;childLayout=tableLayout;fontSize=16;movable=0;resizable=0;rotatable=0;deletable=0;editable=0;locked=1;connectable=0;" parent="lG04s7_ZPw4Fn0zdNkw--1" vertex="1">
          <mxGeometry x="90" y="290" width="670" height="400" as="geometry" />
        </mxCell>
        <mxCell id="lG04s7_ZPw4Fn0zdNkw--3" value="" style="shape=tableRow;horizontal=0;startSize=0;swimlaneHead=0;swimlaneBody=0;strokeColor=inherit;top=0;left=0;bottom=0;right=0;collapsible=0;dropTarget=0;fillColor=none;points=[[0,0.5],[1,0.5]];portConstraint=eastwest;fontSize=16;" parent="lG04s7_ZPw4Fn0zdNkw--2" vertex="1">
          <mxGeometry width="670" height="37" as="geometry" />
        </mxCell>
        <mxCell id="lG04s7_ZPw4Fn0zdNkw--4" value="Entrada" style="shape=partialRectangle;html=1;whiteSpace=wrap;connectable=0;strokeColor=inherit;overflow=hidden;fillColor=none;top=0;left=0;bottom=0;right=0;pointerEvents=1;fontSize=20;fontStyle=1" parent="lG04s7_ZPw4Fn0zdNkw--3" vertex="1">
          <mxGeometry width="140" height="37" as="geometry">
            <mxRectangle width="140" height="37" as="alternateBounds" />
          </mxGeometry>
        </mxCell>
        <mxCell id="lG04s7_ZPw4Fn0zdNkw--5" value="Proceso" style="shape=partialRectangle;html=1;whiteSpace=wrap;connectable=0;strokeColor=inherit;overflow=hidden;fillColor=none;top=0;left=0;bottom=0;right=0;pointerEvents=1;fontSize=20;fontStyle=1" parent="lG04s7_ZPw4Fn0zdNkw--3" vertex="1">
          <mxGeometry x="140" width="307" height="37" as="geometry">
            <mxRectangle width="307" height="37" as="alternateBounds" />
          </mxGeometry>
        </mxCell>
        <mxCell id="lG04s7_ZPw4Fn0zdNkw--6" value="Salida" style="shape=partialRectangle;html=1;whiteSpace=wrap;connectable=0;strokeColor=inherit;overflow=hidden;fillColor=none;top=0;left=0;bottom=0;right=0;pointerEvents=1;fontSize=20;fontStyle=1" parent="lG04s7_ZPw4Fn0zdNkw--3" vertex="1">
          <mxGeometry x="447" width="223" height="37" as="geometry">
            <mxRectangle width="223" height="37" as="alternateBounds" />
          </mxGeometry>
        </mxCell>
        <mxCell id="lG04s7_ZPw4Fn0zdNkw--7" value="" style="shape=tableRow;horizontal=0;startSize=0;swimlaneHead=0;swimlaneBody=0;strokeColor=inherit;top=0;left=0;bottom=0;right=0;collapsible=0;dropTarget=0;fillColor=none;points=[[0,0.5],[1,0.5]];portConstraint=eastwest;fontSize=16;" parent="lG04s7_ZPw4Fn0zdNkw--2" vertex="1">
          <mxGeometry y="37" width="670" height="363" as="geometry" />
        </mxCell>
        <mxCell id="lG04s7_ZPw4Fn0zdNkw--8" value="" style="shape=partialRectangle;html=1;whiteSpace=wrap;connectable=0;strokeColor=inherit;overflow=hidden;fillColor=none;top=0;left=0;bottom=0;right=0;pointerEvents=1;fontSize=16;" parent="lG04s7_ZPw4Fn0zdNkw--7" vertex="1">
          <mxGeometry width="140" height="363" as="geometry">
            <mxRectangle width="140" height="363" as="alternateBounds" />
          </mxGeometry>
        </mxCell>
        <mxCell id="lG04s7_ZPw4Fn0zdNkw--9" value="" style="shape=partialRectangle;html=1;whiteSpace=wrap;connectable=0;strokeColor=inherit;overflow=hidden;fillColor=none;top=0;left=0;bottom=0;right=0;pointerEvents=1;fontSize=16;" parent="lG04s7_ZPw4Fn0zdNkw--7" vertex="1">
          <mxGeometry x="140" width="307" height="363" as="geometry">
            <mxRectangle width="307" height="363" as="alternateBounds" />
          </mxGeometry>
        </mxCell>
        <mxCell id="lG04s7_ZPw4Fn0zdNkw--10" value="" style="shape=partialRectangle;html=1;whiteSpace=wrap;connectable=0;strokeColor=inherit;overflow=hidden;fillColor=none;top=0;left=0;bottom=0;right=0;pointerEvents=1;fontSize=16;" parent="lG04s7_ZPw4Fn0zdNkw--7" vertex="1">
          <mxGeometry x="447" width="223" height="363" as="geometry">
            <mxRectangle width="223" height="363" as="alternateBounds" />
          </mxGeometry>
        </mxCell>
        <mxCell id="lG04s7_ZPw4Fn0zdNkw--11" value="&lt;b&gt;&lt;u&gt;&lt;font style=&quot;font-size: 16px;&quot;&gt;transacciones&lt;/font&gt;&lt;/u&gt;&lt;/b&gt;" style="shape=cylinder3;whiteSpace=wrap;html=1;boundedLbl=1;backgroundOutline=1;size=15;" parent="lG04s7_ZPw4Fn0zdNkw--1" vertex="1">
          <mxGeometry x="100" y="450" width="120" height="110" as="geometry" />
        </mxCell>
        <mxCell id="lG04s7_ZPw4Fn0zdNkw--12" value="" style="endArrow=classic;html=1;rounded=0;fontSize=12;startSize=8;endSize=8;curved=1;exitX=0.388;exitY=0.449;exitDx=0;exitDy=0;exitPerimeter=0;" parent="lG04s7_ZPw4Fn0zdNkw--1" edge="1">
          <mxGeometry width="50" height="50" relative="1" as="geometry">
            <mxPoint x="229.99999999999983" y="389.99699999999996" as="sourcePoint" />
            <mxPoint x="310.04" y="390.01" as="targetPoint" />
          </mxGeometry>
        </mxCell>
        <mxCell id="lG04s7_ZPw4Fn0zdNkw--13" value="Ingreso del empleado" style="text;html=1;align=center;verticalAlign=middle;whiteSpace=wrap;rounded=0;fontSize=16;" parent="lG04s7_ZPw4Fn0zdNkw--1" vertex="1">
          <mxGeometry x="225" y="360" width="200" height="30" as="geometry" />
        </mxCell>
        <mxCell id="lG04s7_ZPw4Fn0zdNkw--15" value="" style="html=1;shadow=0;dashed=0;align=center;verticalAlign=middle;shape=mxgraph.arrows2.arrow;dy=0.6;dx=40;notch=0;rotation=0;" parent="lG04s7_ZPw4Fn0zdNkw--1" vertex="1">
          <mxGeometry x="510" y="487.5" width="80" height="50" as="geometry" />
        </mxCell>
        <mxCell id="lG04s7_ZPw4Fn0zdNkw--16" value="&lt;font style=&quot;font-size: 18px;&quot;&gt;Datos de las transacciones&lt;/font&gt;" style="shape=step;perimeter=stepPerimeter;whiteSpace=wrap;html=1;fixedSize=1;" parent="lG04s7_ZPw4Fn0zdNkw--1" vertex="1">
          <mxGeometry x="590" y="460" width="160" height="90" as="geometry" />
        </mxCell>
        <mxCell id="lG04s7_ZPw4Fn0zdNkw--18" value="&lt;font style=&quot;font-size: 30px;&quot;&gt;Diagrama IPO Funcional 5.0 Transacciones&lt;/font&gt;" style="text;html=1;align=center;verticalAlign=middle;whiteSpace=wrap;rounded=0;fontSize=16;fontStyle=1" parent="lG04s7_ZPw4Fn0zdNkw--1" vertex="1">
          <mxGeometry x="58" y="240" width="735" height="30" as="geometry" />
        </mxCell>
        <mxCell id="lG04s7_ZPw4Fn0zdNkw--19" value="&lt;ul style=&quot;&quot;&gt;&lt;li style=&quot;font-size: 20px;&quot;&gt;&lt;span style=&quot;background-color: initial;&quot;&gt;Registrar venta&lt;/span&gt;&lt;/li&gt;&lt;/ul&gt;" style="text;html=1;align=center;verticalAlign=middle;whiteSpace=wrap;rounded=0;fontSize=16;" parent="lG04s7_ZPw4Fn0zdNkw--1" vertex="1">
          <mxGeometry x="220" y="400" width="270" height="200" as="geometry" />
        </mxCell>
      </root>
    </mxGraphModel>
  </diagram>
  <diagram name="7.0 - Productos" id="kNolNVxs4JafpQmRrNCZ">
    <mxGraphModel dx="1120" dy="528" grid="1" gridSize="10" guides="1" tooltips="1" connect="1" arrows="1" fold="1" page="1" pageScale="1" pageWidth="850" pageHeight="1100" math="0" shadow="0">
      <root>
        <mxCell id="_qr-PLaZ_OJRTFcpX98F-0" />
        <mxCell id="_qr-PLaZ_OJRTFcpX98F-1" parent="_qr-PLaZ_OJRTFcpX98F-0" />
        <mxCell id="_qr-PLaZ_OJRTFcpX98F-2" value="" style="shape=table;startSize=0;container=1;collapsible=0;childLayout=tableLayout;fontSize=16;movable=0;resizable=0;rotatable=0;deletable=0;editable=0;locked=1;connectable=0;" parent="_qr-PLaZ_OJRTFcpX98F-1" vertex="1">
          <mxGeometry x="90" y="290" width="670" height="400" as="geometry" />
        </mxCell>
        <mxCell id="_qr-PLaZ_OJRTFcpX98F-3" value="" style="shape=tableRow;horizontal=0;startSize=0;swimlaneHead=0;swimlaneBody=0;strokeColor=inherit;top=0;left=0;bottom=0;right=0;collapsible=0;dropTarget=0;fillColor=none;points=[[0,0.5],[1,0.5]];portConstraint=eastwest;fontSize=16;" parent="_qr-PLaZ_OJRTFcpX98F-2" vertex="1">
          <mxGeometry width="670" height="37" as="geometry" />
        </mxCell>
        <mxCell id="_qr-PLaZ_OJRTFcpX98F-4" value="Entrada" style="shape=partialRectangle;html=1;whiteSpace=wrap;connectable=0;strokeColor=inherit;overflow=hidden;fillColor=none;top=0;left=0;bottom=0;right=0;pointerEvents=1;fontSize=20;fontStyle=1" parent="_qr-PLaZ_OJRTFcpX98F-3" vertex="1">
          <mxGeometry width="140" height="37" as="geometry">
            <mxRectangle width="140" height="37" as="alternateBounds" />
          </mxGeometry>
        </mxCell>
        <mxCell id="_qr-PLaZ_OJRTFcpX98F-5" value="Proceso" style="shape=partialRectangle;html=1;whiteSpace=wrap;connectable=0;strokeColor=inherit;overflow=hidden;fillColor=none;top=0;left=0;bottom=0;right=0;pointerEvents=1;fontSize=20;fontStyle=1" parent="_qr-PLaZ_OJRTFcpX98F-3" vertex="1">
          <mxGeometry x="140" width="307" height="37" as="geometry">
            <mxRectangle width="307" height="37" as="alternateBounds" />
          </mxGeometry>
        </mxCell>
        <mxCell id="_qr-PLaZ_OJRTFcpX98F-6" value="Salida" style="shape=partialRectangle;html=1;whiteSpace=wrap;connectable=0;strokeColor=inherit;overflow=hidden;fillColor=none;top=0;left=0;bottom=0;right=0;pointerEvents=1;fontSize=20;fontStyle=1" parent="_qr-PLaZ_OJRTFcpX98F-3" vertex="1">
          <mxGeometry x="447" width="223" height="37" as="geometry">
            <mxRectangle width="223" height="37" as="alternateBounds" />
          </mxGeometry>
        </mxCell>
        <mxCell id="_qr-PLaZ_OJRTFcpX98F-7" value="" style="shape=tableRow;horizontal=0;startSize=0;swimlaneHead=0;swimlaneBody=0;strokeColor=inherit;top=0;left=0;bottom=0;right=0;collapsible=0;dropTarget=0;fillColor=none;points=[[0,0.5],[1,0.5]];portConstraint=eastwest;fontSize=16;" parent="_qr-PLaZ_OJRTFcpX98F-2" vertex="1">
          <mxGeometry y="37" width="670" height="363" as="geometry" />
        </mxCell>
        <mxCell id="_qr-PLaZ_OJRTFcpX98F-8" value="" style="shape=partialRectangle;html=1;whiteSpace=wrap;connectable=0;strokeColor=inherit;overflow=hidden;fillColor=none;top=0;left=0;bottom=0;right=0;pointerEvents=1;fontSize=16;" parent="_qr-PLaZ_OJRTFcpX98F-7" vertex="1">
          <mxGeometry width="140" height="363" as="geometry">
            <mxRectangle width="140" height="363" as="alternateBounds" />
          </mxGeometry>
        </mxCell>
        <mxCell id="_qr-PLaZ_OJRTFcpX98F-9" value="" style="shape=partialRectangle;html=1;whiteSpace=wrap;connectable=0;strokeColor=inherit;overflow=hidden;fillColor=none;top=0;left=0;bottom=0;right=0;pointerEvents=1;fontSize=16;" parent="_qr-PLaZ_OJRTFcpX98F-7" vertex="1">
          <mxGeometry x="140" width="307" height="363" as="geometry">
            <mxRectangle width="307" height="363" as="alternateBounds" />
          </mxGeometry>
        </mxCell>
        <mxCell id="_qr-PLaZ_OJRTFcpX98F-10" value="" style="shape=partialRectangle;html=1;whiteSpace=wrap;connectable=0;strokeColor=inherit;overflow=hidden;fillColor=none;top=0;left=0;bottom=0;right=0;pointerEvents=1;fontSize=16;" parent="_qr-PLaZ_OJRTFcpX98F-7" vertex="1">
          <mxGeometry x="447" width="223" height="363" as="geometry">
            <mxRectangle width="223" height="363" as="alternateBounds" />
          </mxGeometry>
        </mxCell>
        <mxCell id="_qr-PLaZ_OJRTFcpX98F-11" value="&lt;b&gt;&lt;u&gt;&lt;font style=&quot;font-size: 16px;&quot;&gt;productos&lt;/font&gt;&lt;/u&gt;&lt;/b&gt;" style="shape=cylinder3;whiteSpace=wrap;html=1;boundedLbl=1;backgroundOutline=1;size=15;" parent="_qr-PLaZ_OJRTFcpX98F-1" vertex="1">
          <mxGeometry x="100" y="450" width="120" height="110" as="geometry" />
        </mxCell>
        <mxCell id="_qr-PLaZ_OJRTFcpX98F-12" value="" style="endArrow=classic;html=1;rounded=0;fontSize=12;startSize=8;endSize=8;curved=1;exitX=0.388;exitY=0.449;exitDx=0;exitDy=0;exitPerimeter=0;" parent="_qr-PLaZ_OJRTFcpX98F-1" edge="1">
          <mxGeometry width="50" height="50" relative="1" as="geometry">
            <mxPoint x="229.99999999999983" y="389.99699999999996" as="sourcePoint" />
            <mxPoint x="310.04" y="390.01" as="targetPoint" />
          </mxGeometry>
        </mxCell>
        <mxCell id="_qr-PLaZ_OJRTFcpX98F-13" value="Ingreso del administrador" style="text;html=1;align=center;verticalAlign=middle;whiteSpace=wrap;rounded=0;fontSize=16;" parent="_qr-PLaZ_OJRTFcpX98F-1" vertex="1">
          <mxGeometry x="225" y="360" width="200" height="30" as="geometry" />
        </mxCell>
        <mxCell id="_qr-PLaZ_OJRTFcpX98F-14" value="" style="html=1;shadow=0;dashed=0;align=center;verticalAlign=middle;shape=mxgraph.arrows2.arrow;dy=0.6;dx=40;notch=0;rotation=90;" parent="_qr-PLaZ_OJRTFcpX98F-1" vertex="1">
          <mxGeometry x="610.63" y="496" width="80" height="52.5" as="geometry" />
        </mxCell>
        <mxCell id="_qr-PLaZ_OJRTFcpX98F-15" value="" style="html=1;shadow=0;dashed=0;align=center;verticalAlign=middle;shape=mxgraph.arrows2.arrow;dy=0.6;dx=40;notch=0;rotation=0;" parent="_qr-PLaZ_OJRTFcpX98F-1" vertex="1">
          <mxGeometry x="510" y="487.5" width="80" height="50" as="geometry" />
        </mxCell>
        <mxCell id="_qr-PLaZ_OJRTFcpX98F-46" value="&lt;font style=&quot;font-size: 18px;&quot;&gt;Datos del producto&lt;/font&gt;" style="shape=step;perimeter=stepPerimeter;whiteSpace=wrap;html=1;fixedSize=1;" parent="_qr-PLaZ_OJRTFcpX98F-1" vertex="1">
          <mxGeometry x="550" y="340" width="200" height="130" as="geometry" />
        </mxCell>
        <mxCell id="_qr-PLaZ_OJRTFcpX98F-47" value="&lt;span style=&quot;font-size: 20px;&quot;&gt;&lt;b&gt;&lt;u&gt;Reportes&lt;/u&gt;&lt;/b&gt;&lt;/span&gt;" style="shape=card;whiteSpace=wrap;html=1;rotation=-90;shadow=0;rounded=0;flipV=1;textDirection=vertical-rl;" parent="_qr-PLaZ_OJRTFcpX98F-1" vertex="1">
          <mxGeometry x="601.57" y="542.65" width="106.87" height="162.5" as="geometry" />
        </mxCell>
        <mxCell id="_qr-PLaZ_OJRTFcpX98F-49" value="&lt;font style=&quot;font-size: 30px;&quot;&gt;Diagrama IPO Funcional 7.0 Productos&lt;/font&gt;" style="text;html=1;align=center;verticalAlign=middle;whiteSpace=wrap;rounded=0;fontSize=16;fontStyle=1" parent="_qr-PLaZ_OJRTFcpX98F-1" vertex="1">
          <mxGeometry x="58" y="240" width="735" height="30" as="geometry" />
        </mxCell>
        <mxCell id="x-0ddHAnFxG4M9rfk2C9-2" value="&lt;ul style=&quot;font-size: 20px;&quot;&gt;&lt;li&gt;&lt;span style=&quot;&quot;&gt;Agregar&lt;/span&gt;&lt;/li&gt;&lt;li&gt;&lt;span style=&quot;&quot;&gt;Consultar&lt;/span&gt;&lt;/li&gt;&lt;ul&gt;&lt;li&gt;&lt;span style=&quot;&quot;&gt;Nombre&lt;/span&gt;&lt;/li&gt;&lt;li&gt;id&lt;/li&gt;&lt;/ul&gt;&lt;li&gt;&lt;span style=&quot;&quot;&gt;Modificar&lt;/span&gt;&lt;/li&gt;&lt;li&gt;&lt;span style=&quot;&quot;&gt;Eliminar&lt;/span&gt;&lt;/li&gt;&lt;/ul&gt;" style="text;html=1;align=center;verticalAlign=middle;whiteSpace=wrap;rounded=0;fontSize=16;" parent="_qr-PLaZ_OJRTFcpX98F-1" vertex="1">
          <mxGeometry x="220" y="405" width="260" height="200" as="geometry" />
        </mxCell>
      </root>
    </mxGraphModel>
  </diagram>
  <diagram name="8.0 - Clientes" id="BZmSlT3FIN3Sq6L2XVD-">
    <mxGraphModel dx="1120" dy="528" grid="1" gridSize="10" guides="1" tooltips="1" connect="1" arrows="1" fold="1" page="1" pageScale="1" pageWidth="850" pageHeight="1100" math="0" shadow="0">
      <root>
        <mxCell id="IwLBtxC177wYaz2DRgs_-0" />
        <mxCell id="IwLBtxC177wYaz2DRgs_-1" parent="IwLBtxC177wYaz2DRgs_-0" />
        <mxCell id="IwLBtxC177wYaz2DRgs_-2" value="" style="shape=table;startSize=0;container=1;collapsible=0;childLayout=tableLayout;fontSize=16;movable=0;resizable=0;rotatable=0;deletable=0;editable=0;locked=1;connectable=0;" parent="IwLBtxC177wYaz2DRgs_-1" vertex="1">
          <mxGeometry x="90" y="290" width="670" height="400" as="geometry" />
        </mxCell>
        <mxCell id="IwLBtxC177wYaz2DRgs_-3" value="" style="shape=tableRow;horizontal=0;startSize=0;swimlaneHead=0;swimlaneBody=0;strokeColor=inherit;top=0;left=0;bottom=0;right=0;collapsible=0;dropTarget=0;fillColor=none;points=[[0,0.5],[1,0.5]];portConstraint=eastwest;fontSize=16;" parent="IwLBtxC177wYaz2DRgs_-2" vertex="1">
          <mxGeometry width="670" height="37" as="geometry" />
        </mxCell>
        <mxCell id="IwLBtxC177wYaz2DRgs_-4" value="Entrada" style="shape=partialRectangle;html=1;whiteSpace=wrap;connectable=0;strokeColor=inherit;overflow=hidden;fillColor=none;top=0;left=0;bottom=0;right=0;pointerEvents=1;fontSize=20;fontStyle=1" parent="IwLBtxC177wYaz2DRgs_-3" vertex="1">
          <mxGeometry width="140" height="37" as="geometry">
            <mxRectangle width="140" height="37" as="alternateBounds" />
          </mxGeometry>
        </mxCell>
        <mxCell id="IwLBtxC177wYaz2DRgs_-5" value="Proceso" style="shape=partialRectangle;html=1;whiteSpace=wrap;connectable=0;strokeColor=inherit;overflow=hidden;fillColor=none;top=0;left=0;bottom=0;right=0;pointerEvents=1;fontSize=20;fontStyle=1" parent="IwLBtxC177wYaz2DRgs_-3" vertex="1">
          <mxGeometry x="140" width="307" height="37" as="geometry">
            <mxRectangle width="307" height="37" as="alternateBounds" />
          </mxGeometry>
        </mxCell>
        <mxCell id="IwLBtxC177wYaz2DRgs_-6" value="Salida" style="shape=partialRectangle;html=1;whiteSpace=wrap;connectable=0;strokeColor=inherit;overflow=hidden;fillColor=none;top=0;left=0;bottom=0;right=0;pointerEvents=1;fontSize=20;fontStyle=1" parent="IwLBtxC177wYaz2DRgs_-3" vertex="1">
          <mxGeometry x="447" width="223" height="37" as="geometry">
            <mxRectangle width="223" height="37" as="alternateBounds" />
          </mxGeometry>
        </mxCell>
        <mxCell id="IwLBtxC177wYaz2DRgs_-7" value="" style="shape=tableRow;horizontal=0;startSize=0;swimlaneHead=0;swimlaneBody=0;strokeColor=inherit;top=0;left=0;bottom=0;right=0;collapsible=0;dropTarget=0;fillColor=none;points=[[0,0.5],[1,0.5]];portConstraint=eastwest;fontSize=16;" parent="IwLBtxC177wYaz2DRgs_-2" vertex="1">
          <mxGeometry y="37" width="670" height="363" as="geometry" />
        </mxCell>
        <mxCell id="IwLBtxC177wYaz2DRgs_-8" value="" style="shape=partialRectangle;html=1;whiteSpace=wrap;connectable=0;strokeColor=inherit;overflow=hidden;fillColor=none;top=0;left=0;bottom=0;right=0;pointerEvents=1;fontSize=16;" parent="IwLBtxC177wYaz2DRgs_-7" vertex="1">
          <mxGeometry width="140" height="363" as="geometry">
            <mxRectangle width="140" height="363" as="alternateBounds" />
          </mxGeometry>
        </mxCell>
        <mxCell id="IwLBtxC177wYaz2DRgs_-9" value="" style="shape=partialRectangle;html=1;whiteSpace=wrap;connectable=0;strokeColor=inherit;overflow=hidden;fillColor=none;top=0;left=0;bottom=0;right=0;pointerEvents=1;fontSize=16;" parent="IwLBtxC177wYaz2DRgs_-7" vertex="1">
          <mxGeometry x="140" width="307" height="363" as="geometry">
            <mxRectangle width="307" height="363" as="alternateBounds" />
          </mxGeometry>
        </mxCell>
        <mxCell id="IwLBtxC177wYaz2DRgs_-10" value="" style="shape=partialRectangle;html=1;whiteSpace=wrap;connectable=0;strokeColor=inherit;overflow=hidden;fillColor=none;top=0;left=0;bottom=0;right=0;pointerEvents=1;fontSize=16;" parent="IwLBtxC177wYaz2DRgs_-7" vertex="1">
          <mxGeometry x="447" width="223" height="363" as="geometry">
            <mxRectangle width="223" height="363" as="alternateBounds" />
          </mxGeometry>
        </mxCell>
        <mxCell id="IwLBtxC177wYaz2DRgs_-11" value="&lt;span style=&quot;font-size: 16px;&quot;&gt;&lt;b&gt;&lt;u&gt;clientes&lt;/u&gt;&lt;/b&gt;&lt;/span&gt;" style="shape=cylinder3;whiteSpace=wrap;html=1;boundedLbl=1;backgroundOutline=1;size=15;" parent="IwLBtxC177wYaz2DRgs_-1" vertex="1">
          <mxGeometry x="100" y="450" width="120" height="110" as="geometry" />
        </mxCell>
        <mxCell id="IwLBtxC177wYaz2DRgs_-12" value="" style="endArrow=classic;html=1;rounded=0;fontSize=12;startSize=8;endSize=8;curved=1;exitX=0.388;exitY=0.449;exitDx=0;exitDy=0;exitPerimeter=0;" parent="IwLBtxC177wYaz2DRgs_-1" edge="1">
          <mxGeometry width="50" height="50" relative="1" as="geometry">
            <mxPoint x="229.99999999999983" y="389.99699999999996" as="sourcePoint" />
            <mxPoint x="310.04" y="390.01" as="targetPoint" />
          </mxGeometry>
        </mxCell>
        <mxCell id="IwLBtxC177wYaz2DRgs_-13" value="Ingreso del usuario" style="text;html=1;align=center;verticalAlign=middle;whiteSpace=wrap;rounded=0;fontSize=16;" parent="IwLBtxC177wYaz2DRgs_-1" vertex="1">
          <mxGeometry x="210" y="360" width="200" height="30" as="geometry" />
        </mxCell>
        <mxCell id="IwLBtxC177wYaz2DRgs_-14" value="" style="html=1;shadow=0;dashed=0;align=center;verticalAlign=middle;shape=mxgraph.arrows2.arrow;dy=0.6;dx=40;notch=0;rotation=90;" parent="IwLBtxC177wYaz2DRgs_-1" vertex="1">
          <mxGeometry x="610.63" y="496" width="80" height="52.5" as="geometry" />
        </mxCell>
        <mxCell id="IwLBtxC177wYaz2DRgs_-15" value="" style="html=1;shadow=0;dashed=0;align=center;verticalAlign=middle;shape=mxgraph.arrows2.arrow;dy=0.6;dx=40;notch=0;rotation=0;" parent="IwLBtxC177wYaz2DRgs_-1" vertex="1">
          <mxGeometry x="510" y="487.5" width="80" height="50" as="geometry" />
        </mxCell>
        <mxCell id="IwLBtxC177wYaz2DRgs_-16" value="&lt;font style=&quot;font-size: 18px;&quot;&gt;Datos del cliente&lt;/font&gt;" style="shape=step;perimeter=stepPerimeter;whiteSpace=wrap;html=1;fixedSize=1;" parent="IwLBtxC177wYaz2DRgs_-1" vertex="1">
          <mxGeometry x="550" y="340" width="200" height="130" as="geometry" />
        </mxCell>
        <mxCell id="IwLBtxC177wYaz2DRgs_-17" value="&lt;span style=&quot;font-size: 20px;&quot;&gt;&lt;b&gt;&lt;u&gt;Reportes&lt;/u&gt;&lt;/b&gt;&lt;/span&gt;" style="shape=card;whiteSpace=wrap;html=1;rotation=-90;shadow=0;rounded=0;flipV=1;textDirection=vertical-rl;" parent="IwLBtxC177wYaz2DRgs_-1" vertex="1">
          <mxGeometry x="601.57" y="542.65" width="106.87" height="162.5" as="geometry" />
        </mxCell>
        <mxCell id="IwLBtxC177wYaz2DRgs_-18" value="&lt;font style=&quot;font-size: 30px;&quot;&gt;Diagrama IPO Funcional 8.0 Clientes&lt;/font&gt;" style="text;html=1;align=center;verticalAlign=middle;whiteSpace=wrap;rounded=0;fontSize=16;fontStyle=1" parent="IwLBtxC177wYaz2DRgs_-1" vertex="1">
          <mxGeometry x="58" y="240" width="735" height="30" as="geometry" />
        </mxCell>
        <mxCell id="IwLBtxC177wYaz2DRgs_-19" value="&lt;ul style=&quot;font-size: 20px;&quot;&gt;&lt;li&gt;&lt;span style=&quot;&quot;&gt;Agregar&lt;/span&gt;&lt;/li&gt;&lt;li&gt;&lt;span style=&quot;&quot;&gt;Consultar&lt;/span&gt;&lt;/li&gt;&lt;ul&gt;&lt;li&gt;&lt;span style=&quot;&quot;&gt;Nombre&lt;/span&gt;&lt;/li&gt;&lt;li&gt;Cédula&lt;/li&gt;&lt;/ul&gt;&lt;li&gt;&lt;span style=&quot;&quot;&gt;Modificar&lt;/span&gt;&lt;/li&gt;&lt;li&gt;&lt;span style=&quot;&quot;&gt;Eliminar&lt;/span&gt;&lt;/li&gt;&lt;/ul&gt;" style="text;html=1;align=center;verticalAlign=middle;whiteSpace=wrap;rounded=0;fontSize=16;" parent="IwLBtxC177wYaz2DRgs_-1" vertex="1">
          <mxGeometry x="220" y="405" width="260" height="200" as="geometry" />
        </mxCell>
      </root>
    </mxGraphModel>
  </diagram>
  <diagram name="9.0 - Proveedores" id="MKOvSHfclJ8P20y9erwP">
    <mxGraphModel dx="1120" dy="528" grid="1" gridSize="10" guides="1" tooltips="1" connect="1" arrows="1" fold="1" page="1" pageScale="1" pageWidth="850" pageHeight="1100" math="0" shadow="0">
      <root>
        <mxCell id="FR6MPt2_xWZEXzI52TYH-0" />
        <mxCell id="FR6MPt2_xWZEXzI52TYH-1" parent="FR6MPt2_xWZEXzI52TYH-0" />
        <mxCell id="FR6MPt2_xWZEXzI52TYH-2" value="" style="shape=table;startSize=0;container=1;collapsible=0;childLayout=tableLayout;fontSize=16;movable=0;resizable=0;rotatable=0;deletable=0;editable=0;locked=1;connectable=0;" parent="FR6MPt2_xWZEXzI52TYH-1" vertex="1">
          <mxGeometry x="90" y="290" width="670" height="400" as="geometry" />
        </mxCell>
        <mxCell id="FR6MPt2_xWZEXzI52TYH-3" value="" style="shape=tableRow;horizontal=0;startSize=0;swimlaneHead=0;swimlaneBody=0;strokeColor=inherit;top=0;left=0;bottom=0;right=0;collapsible=0;dropTarget=0;fillColor=none;points=[[0,0.5],[1,0.5]];portConstraint=eastwest;fontSize=16;" parent="FR6MPt2_xWZEXzI52TYH-2" vertex="1">
          <mxGeometry width="670" height="37" as="geometry" />
        </mxCell>
        <mxCell id="FR6MPt2_xWZEXzI52TYH-4" value="Entrada" style="shape=partialRectangle;html=1;whiteSpace=wrap;connectable=0;strokeColor=inherit;overflow=hidden;fillColor=none;top=0;left=0;bottom=0;right=0;pointerEvents=1;fontSize=20;fontStyle=1" parent="FR6MPt2_xWZEXzI52TYH-3" vertex="1">
          <mxGeometry width="140" height="37" as="geometry">
            <mxRectangle width="140" height="37" as="alternateBounds" />
          </mxGeometry>
        </mxCell>
        <mxCell id="FR6MPt2_xWZEXzI52TYH-5" value="Proceso" style="shape=partialRectangle;html=1;whiteSpace=wrap;connectable=0;strokeColor=inherit;overflow=hidden;fillColor=none;top=0;left=0;bottom=0;right=0;pointerEvents=1;fontSize=20;fontStyle=1" parent="FR6MPt2_xWZEXzI52TYH-3" vertex="1">
          <mxGeometry x="140" width="307" height="37" as="geometry">
            <mxRectangle width="307" height="37" as="alternateBounds" />
          </mxGeometry>
        </mxCell>
        <mxCell id="FR6MPt2_xWZEXzI52TYH-6" value="Salida" style="shape=partialRectangle;html=1;whiteSpace=wrap;connectable=0;strokeColor=inherit;overflow=hidden;fillColor=none;top=0;left=0;bottom=0;right=0;pointerEvents=1;fontSize=20;fontStyle=1" parent="FR6MPt2_xWZEXzI52TYH-3" vertex="1">
          <mxGeometry x="447" width="223" height="37" as="geometry">
            <mxRectangle width="223" height="37" as="alternateBounds" />
          </mxGeometry>
        </mxCell>
        <mxCell id="FR6MPt2_xWZEXzI52TYH-7" value="" style="shape=tableRow;horizontal=0;startSize=0;swimlaneHead=0;swimlaneBody=0;strokeColor=inherit;top=0;left=0;bottom=0;right=0;collapsible=0;dropTarget=0;fillColor=none;points=[[0,0.5],[1,0.5]];portConstraint=eastwest;fontSize=16;" parent="FR6MPt2_xWZEXzI52TYH-2" vertex="1">
          <mxGeometry y="37" width="670" height="363" as="geometry" />
        </mxCell>
        <mxCell id="FR6MPt2_xWZEXzI52TYH-8" value="" style="shape=partialRectangle;html=1;whiteSpace=wrap;connectable=0;strokeColor=inherit;overflow=hidden;fillColor=none;top=0;left=0;bottom=0;right=0;pointerEvents=1;fontSize=16;" parent="FR6MPt2_xWZEXzI52TYH-7" vertex="1">
          <mxGeometry width="140" height="363" as="geometry">
            <mxRectangle width="140" height="363" as="alternateBounds" />
          </mxGeometry>
        </mxCell>
        <mxCell id="FR6MPt2_xWZEXzI52TYH-9" value="" style="shape=partialRectangle;html=1;whiteSpace=wrap;connectable=0;strokeColor=inherit;overflow=hidden;fillColor=none;top=0;left=0;bottom=0;right=0;pointerEvents=1;fontSize=16;" parent="FR6MPt2_xWZEXzI52TYH-7" vertex="1">
          <mxGeometry x="140" width="307" height="363" as="geometry">
            <mxRectangle width="307" height="363" as="alternateBounds" />
          </mxGeometry>
        </mxCell>
        <mxCell id="FR6MPt2_xWZEXzI52TYH-10" value="" style="shape=partialRectangle;html=1;whiteSpace=wrap;connectable=0;strokeColor=inherit;overflow=hidden;fillColor=none;top=0;left=0;bottom=0;right=0;pointerEvents=1;fontSize=16;" parent="FR6MPt2_xWZEXzI52TYH-7" vertex="1">
          <mxGeometry x="447" width="223" height="363" as="geometry">
            <mxRectangle width="223" height="363" as="alternateBounds" />
          </mxGeometry>
        </mxCell>
        <mxCell id="FR6MPt2_xWZEXzI52TYH-11" value="&lt;b&gt;&lt;u&gt;&lt;font style=&quot;font-size: 16px;&quot;&gt;proveedores&lt;/font&gt;&lt;/u&gt;&lt;/b&gt;" style="shape=cylinder3;whiteSpace=wrap;html=1;boundedLbl=1;backgroundOutline=1;size=15;" parent="FR6MPt2_xWZEXzI52TYH-1" vertex="1">
          <mxGeometry x="100" y="450" width="120" height="110" as="geometry" />
        </mxCell>
        <mxCell id="FR6MPt2_xWZEXzI52TYH-12" value="" style="endArrow=classic;html=1;rounded=0;fontSize=12;startSize=8;endSize=8;curved=1;exitX=0.388;exitY=0.449;exitDx=0;exitDy=0;exitPerimeter=0;" parent="FR6MPt2_xWZEXzI52TYH-1" edge="1">
          <mxGeometry width="50" height="50" relative="1" as="geometry">
            <mxPoint x="229.99999999999983" y="389.99699999999996" as="sourcePoint" />
            <mxPoint x="310.04" y="390.01" as="targetPoint" />
          </mxGeometry>
        </mxCell>
        <mxCell id="FR6MPt2_xWZEXzI52TYH-13" value="Ingreso del administrador" style="text;html=1;align=center;verticalAlign=middle;whiteSpace=wrap;rounded=0;fontSize=16;" parent="FR6MPt2_xWZEXzI52TYH-1" vertex="1">
          <mxGeometry x="225" y="360" width="200" height="30" as="geometry" />
        </mxCell>
        <mxCell id="FR6MPt2_xWZEXzI52TYH-14" value="" style="html=1;shadow=0;dashed=0;align=center;verticalAlign=middle;shape=mxgraph.arrows2.arrow;dy=0.6;dx=40;notch=0;rotation=90;" parent="FR6MPt2_xWZEXzI52TYH-1" vertex="1">
          <mxGeometry x="610.63" y="496" width="80" height="52.5" as="geometry" />
        </mxCell>
        <mxCell id="FR6MPt2_xWZEXzI52TYH-15" value="" style="html=1;shadow=0;dashed=0;align=center;verticalAlign=middle;shape=mxgraph.arrows2.arrow;dy=0.6;dx=40;notch=0;rotation=0;" parent="FR6MPt2_xWZEXzI52TYH-1" vertex="1">
          <mxGeometry x="510" y="487.5" width="80" height="50" as="geometry" />
        </mxCell>
        <mxCell id="FR6MPt2_xWZEXzI52TYH-16" value="&lt;font style=&quot;font-size: 18px;&quot;&gt;&amp;nbsp; Datos del proveedor&lt;/font&gt;" style="shape=step;perimeter=stepPerimeter;whiteSpace=wrap;html=1;fixedSize=1;" parent="FR6MPt2_xWZEXzI52TYH-1" vertex="1">
          <mxGeometry x="550" y="340" width="200" height="130" as="geometry" />
        </mxCell>
        <mxCell id="FR6MPt2_xWZEXzI52TYH-17" value="&lt;span style=&quot;font-size: 20px;&quot;&gt;&lt;b&gt;&lt;u&gt;Reportes&lt;/u&gt;&lt;/b&gt;&lt;/span&gt;" style="shape=card;whiteSpace=wrap;html=1;rotation=-90;shadow=0;rounded=0;flipV=1;textDirection=vertical-rl;" parent="FR6MPt2_xWZEXzI52TYH-1" vertex="1">
          <mxGeometry x="601.57" y="542.65" width="106.87" height="162.5" as="geometry" />
        </mxCell>
        <mxCell id="FR6MPt2_xWZEXzI52TYH-18" value="&lt;font style=&quot;font-size: 30px;&quot;&gt;Diagrama IPO Funcional 9.0 Proveedores&lt;/font&gt;" style="text;html=1;align=center;verticalAlign=middle;whiteSpace=wrap;rounded=0;fontSize=16;fontStyle=1" parent="FR6MPt2_xWZEXzI52TYH-1" vertex="1">
          <mxGeometry x="58" y="240" width="735" height="30" as="geometry" />
        </mxCell>
        <mxCell id="FR6MPt2_xWZEXzI52TYH-19" value="&lt;ul style=&quot;font-size: 20px;&quot;&gt;&lt;li&gt;&lt;span style=&quot;&quot;&gt;Agregar&lt;/span&gt;&lt;/li&gt;&lt;li&gt;&lt;span style=&quot;&quot;&gt;Consultar&lt;/span&gt;&lt;/li&gt;&lt;ul&gt;&lt;li&gt;&lt;span style=&quot;&quot;&gt;Nombre (Razón Social)&lt;/span&gt;&lt;/li&gt;&lt;li&gt;RIF&lt;/li&gt;&lt;/ul&gt;&lt;li&gt;&lt;span style=&quot;&quot;&gt;Modificar&lt;/span&gt;&lt;/li&gt;&lt;li&gt;&lt;span style=&quot;&quot;&gt;Eliminar&lt;/span&gt;&lt;/li&gt;&lt;/ul&gt;" style="text;html=1;align=center;verticalAlign=middle;whiteSpace=wrap;rounded=0;fontSize=16;" parent="FR6MPt2_xWZEXzI52TYH-1" vertex="1">
          <mxGeometry x="210" y="405" width="300" height="200" as="geometry" />
        </mxCell>
      </root>
    </mxGraphModel>
  </diagram>
  <diagram name="10.0 - Transacciones" id="Z_RTAbDoDOlg7w8WMgaE">
    <mxGraphModel dx="1120" dy="528" grid="1" gridSize="10" guides="1" tooltips="1" connect="1" arrows="1" fold="1" page="1" pageScale="1" pageWidth="850" pageHeight="1100" math="0" shadow="0">
      <root>
        <mxCell id="l8sU0IjAiGT05HwXlLre-0" />
        <mxCell id="l8sU0IjAiGT05HwXlLre-1" parent="l8sU0IjAiGT05HwXlLre-0" />
        <mxCell id="l8sU0IjAiGT05HwXlLre-2" value="" style="shape=table;startSize=0;container=1;collapsible=0;childLayout=tableLayout;fontSize=16;movable=0;resizable=0;rotatable=0;deletable=0;editable=0;locked=1;connectable=0;" parent="l8sU0IjAiGT05HwXlLre-1" vertex="1">
          <mxGeometry x="90" y="290" width="670" height="400" as="geometry" />
        </mxCell>
        <mxCell id="l8sU0IjAiGT05HwXlLre-3" value="" style="shape=tableRow;horizontal=0;startSize=0;swimlaneHead=0;swimlaneBody=0;strokeColor=inherit;top=0;left=0;bottom=0;right=0;collapsible=0;dropTarget=0;fillColor=none;points=[[0,0.5],[1,0.5]];portConstraint=eastwest;fontSize=16;" parent="l8sU0IjAiGT05HwXlLre-2" vertex="1">
          <mxGeometry width="670" height="37" as="geometry" />
        </mxCell>
        <mxCell id="l8sU0IjAiGT05HwXlLre-4" value="Entrada" style="shape=partialRectangle;html=1;whiteSpace=wrap;connectable=0;strokeColor=inherit;overflow=hidden;fillColor=none;top=0;left=0;bottom=0;right=0;pointerEvents=1;fontSize=20;fontStyle=1" parent="l8sU0IjAiGT05HwXlLre-3" vertex="1">
          <mxGeometry width="140" height="37" as="geometry">
            <mxRectangle width="140" height="37" as="alternateBounds" />
          </mxGeometry>
        </mxCell>
        <mxCell id="l8sU0IjAiGT05HwXlLre-5" value="Proceso" style="shape=partialRectangle;html=1;whiteSpace=wrap;connectable=0;strokeColor=inherit;overflow=hidden;fillColor=none;top=0;left=0;bottom=0;right=0;pointerEvents=1;fontSize=20;fontStyle=1" parent="l8sU0IjAiGT05HwXlLre-3" vertex="1">
          <mxGeometry x="140" width="307" height="37" as="geometry">
            <mxRectangle width="307" height="37" as="alternateBounds" />
          </mxGeometry>
        </mxCell>
        <mxCell id="l8sU0IjAiGT05HwXlLre-6" value="Salida" style="shape=partialRectangle;html=1;whiteSpace=wrap;connectable=0;strokeColor=inherit;overflow=hidden;fillColor=none;top=0;left=0;bottom=0;right=0;pointerEvents=1;fontSize=20;fontStyle=1" parent="l8sU0IjAiGT05HwXlLre-3" vertex="1">
          <mxGeometry x="447" width="223" height="37" as="geometry">
            <mxRectangle width="223" height="37" as="alternateBounds" />
          </mxGeometry>
        </mxCell>
        <mxCell id="l8sU0IjAiGT05HwXlLre-7" value="" style="shape=tableRow;horizontal=0;startSize=0;swimlaneHead=0;swimlaneBody=0;strokeColor=inherit;top=0;left=0;bottom=0;right=0;collapsible=0;dropTarget=0;fillColor=none;points=[[0,0.5],[1,0.5]];portConstraint=eastwest;fontSize=16;" parent="l8sU0IjAiGT05HwXlLre-2" vertex="1">
          <mxGeometry y="37" width="670" height="363" as="geometry" />
        </mxCell>
        <mxCell id="l8sU0IjAiGT05HwXlLre-8" value="" style="shape=partialRectangle;html=1;whiteSpace=wrap;connectable=0;strokeColor=inherit;overflow=hidden;fillColor=none;top=0;left=0;bottom=0;right=0;pointerEvents=1;fontSize=16;" parent="l8sU0IjAiGT05HwXlLre-7" vertex="1">
          <mxGeometry width="140" height="363" as="geometry">
            <mxRectangle width="140" height="363" as="alternateBounds" />
          </mxGeometry>
        </mxCell>
        <mxCell id="l8sU0IjAiGT05HwXlLre-9" value="" style="shape=partialRectangle;html=1;whiteSpace=wrap;connectable=0;strokeColor=inherit;overflow=hidden;fillColor=none;top=0;left=0;bottom=0;right=0;pointerEvents=1;fontSize=16;" parent="l8sU0IjAiGT05HwXlLre-7" vertex="1">
          <mxGeometry x="140" width="307" height="363" as="geometry">
            <mxRectangle width="307" height="363" as="alternateBounds" />
          </mxGeometry>
        </mxCell>
        <mxCell id="l8sU0IjAiGT05HwXlLre-10" value="" style="shape=partialRectangle;html=1;whiteSpace=wrap;connectable=0;strokeColor=inherit;overflow=hidden;fillColor=none;top=0;left=0;bottom=0;right=0;pointerEvents=1;fontSize=16;" parent="l8sU0IjAiGT05HwXlLre-7" vertex="1">
          <mxGeometry x="447" width="223" height="363" as="geometry">
            <mxRectangle width="223" height="363" as="alternateBounds" />
          </mxGeometry>
        </mxCell>
        <mxCell id="l8sU0IjAiGT05HwXlLre-11" value="&lt;b&gt;&lt;u&gt;&lt;font style=&quot;font-size: 16px;&quot;&gt;transacciones&lt;/font&gt;&lt;/u&gt;&lt;/b&gt;" style="shape=cylinder3;whiteSpace=wrap;html=1;boundedLbl=1;backgroundOutline=1;size=15;" parent="l8sU0IjAiGT05HwXlLre-1" vertex="1">
          <mxGeometry x="100" y="450" width="120" height="110" as="geometry" />
        </mxCell>
        <mxCell id="l8sU0IjAiGT05HwXlLre-12" value="" style="endArrow=classic;html=1;rounded=0;fontSize=12;startSize=8;endSize=8;curved=1;exitX=0.388;exitY=0.449;exitDx=0;exitDy=0;exitPerimeter=0;" parent="l8sU0IjAiGT05HwXlLre-1" edge="1">
          <mxGeometry width="50" height="50" relative="1" as="geometry">
            <mxPoint x="229.99999999999983" y="389.99699999999996" as="sourcePoint" />
            <mxPoint x="310.04" y="390.01" as="targetPoint" />
          </mxGeometry>
        </mxCell>
        <mxCell id="l8sU0IjAiGT05HwXlLre-13" value="Ingreso del administrador" style="text;html=1;align=center;verticalAlign=middle;whiteSpace=wrap;rounded=0;fontSize=16;" parent="l8sU0IjAiGT05HwXlLre-1" vertex="1">
          <mxGeometry x="225" y="360" width="200" height="30" as="geometry" />
        </mxCell>
        <mxCell id="l8sU0IjAiGT05HwXlLre-14" value="" style="html=1;shadow=0;dashed=0;align=center;verticalAlign=middle;shape=mxgraph.arrows2.arrow;dy=0.6;dx=40;notch=0;rotation=90;" parent="l8sU0IjAiGT05HwXlLre-1" vertex="1">
          <mxGeometry x="610.63" y="496" width="80" height="52.5" as="geometry" />
        </mxCell>
        <mxCell id="l8sU0IjAiGT05HwXlLre-15" value="" style="html=1;shadow=0;dashed=0;align=center;verticalAlign=middle;shape=mxgraph.arrows2.arrow;dy=0.6;dx=40;notch=0;rotation=0;" parent="l8sU0IjAiGT05HwXlLre-1" vertex="1">
          <mxGeometry x="510" y="487.5" width="80" height="50" as="geometry" />
        </mxCell>
        <mxCell id="l8sU0IjAiGT05HwXlLre-16" value="&lt;font style=&quot;font-size: 18px;&quot;&gt;Datos de las transacciones&lt;/font&gt;" style="shape=step;perimeter=stepPerimeter;whiteSpace=wrap;html=1;fixedSize=1;" parent="l8sU0IjAiGT05HwXlLre-1" vertex="1">
          <mxGeometry x="550" y="340" width="200" height="130" as="geometry" />
        </mxCell>
        <mxCell id="l8sU0IjAiGT05HwXlLre-17" value="&lt;span style=&quot;font-size: 20px;&quot;&gt;&lt;b&gt;&lt;u&gt;Reportes&lt;/u&gt;&lt;/b&gt;&lt;/span&gt;" style="shape=card;whiteSpace=wrap;html=1;rotation=-90;shadow=0;rounded=0;flipV=1;textDirection=vertical-rl;" parent="l8sU0IjAiGT05HwXlLre-1" vertex="1">
          <mxGeometry x="601.57" y="542.65" width="106.87" height="162.5" as="geometry" />
        </mxCell>
        <mxCell id="l8sU0IjAiGT05HwXlLre-18" value="&lt;font style=&quot;font-size: 30px;&quot;&gt;Diagrama IPO Funcional 10.0 Transacciones&lt;/font&gt;" style="text;html=1;align=center;verticalAlign=middle;whiteSpace=wrap;rounded=0;fontSize=16;fontStyle=1" parent="l8sU0IjAiGT05HwXlLre-1" vertex="1">
          <mxGeometry x="58" y="240" width="735" height="30" as="geometry" />
        </mxCell>
        <mxCell id="l8sU0IjAiGT05HwXlLre-19" value="&lt;div&gt;&lt;span style=&quot;font-size: 20px;&quot;&gt;&lt;br&gt;&lt;/span&gt;&lt;/div&gt;&lt;ul style=&quot;&quot;&gt;&lt;li style=&quot;font-size: 20px;&quot;&gt;Historial (Consultar)&lt;/li&gt;&lt;ul style=&quot;font-size: 20px;&quot;&gt;&lt;li&gt;Fecha&lt;/li&gt;&lt;/ul&gt;&lt;li style=&quot;&quot;&gt;&lt;span style=&quot;font-size: 20px;&quot;&gt;Registrar venta&lt;/span&gt;&lt;/li&gt;&lt;li style=&quot;&quot;&gt;&lt;span style=&quot;font-size: 20px;&quot;&gt;Registrar compra&lt;/span&gt;&lt;/li&gt;&lt;/ul&gt;" style="text;html=1;align=center;verticalAlign=middle;whiteSpace=wrap;rounded=0;fontSize=16;" parent="l8sU0IjAiGT05HwXlLre-1" vertex="1">
          <mxGeometry x="220" y="400" width="270" height="200" as="geometry" />
        </mxCell>
      </root>
    </mxGraphModel>
  </diagram>
  <diagram name="11.0 - Herramientas" id="eODtY1munxpMRQUvIT7P">
    <mxGraphModel dx="1120" dy="528" grid="1" gridSize="10" guides="1" tooltips="1" connect="1" arrows="1" fold="1" page="1" pageScale="1" pageWidth="850" pageHeight="1100" math="0" shadow="0">
      <root>
        <mxCell id="ZLoGj9LW1wtHYjLQBv0--0" />
        <mxCell id="ZLoGj9LW1wtHYjLQBv0--1" parent="ZLoGj9LW1wtHYjLQBv0--0" />
        <mxCell id="ZLoGj9LW1wtHYjLQBv0--2" value="" style="shape=table;startSize=0;container=1;collapsible=0;childLayout=tableLayout;fontSize=16;movable=0;resizable=0;rotatable=0;deletable=0;editable=0;locked=1;connectable=0;" parent="ZLoGj9LW1wtHYjLQBv0--1" vertex="1">
          <mxGeometry x="90" y="290" width="670" height="400" as="geometry" />
        </mxCell>
        <mxCell id="ZLoGj9LW1wtHYjLQBv0--3" value="" style="shape=tableRow;horizontal=0;startSize=0;swimlaneHead=0;swimlaneBody=0;strokeColor=inherit;top=0;left=0;bottom=0;right=0;collapsible=0;dropTarget=0;fillColor=none;points=[[0,0.5],[1,0.5]];portConstraint=eastwest;fontSize=16;" parent="ZLoGj9LW1wtHYjLQBv0--2" vertex="1">
          <mxGeometry width="670" height="37" as="geometry" />
        </mxCell>
        <mxCell id="ZLoGj9LW1wtHYjLQBv0--4" value="Entrada" style="shape=partialRectangle;html=1;whiteSpace=wrap;connectable=0;strokeColor=inherit;overflow=hidden;fillColor=none;top=0;left=0;bottom=0;right=0;pointerEvents=1;fontSize=20;fontStyle=1" parent="ZLoGj9LW1wtHYjLQBv0--3" vertex="1">
          <mxGeometry width="140" height="37" as="geometry">
            <mxRectangle width="140" height="37" as="alternateBounds" />
          </mxGeometry>
        </mxCell>
        <mxCell id="ZLoGj9LW1wtHYjLQBv0--5" value="Proceso" style="shape=partialRectangle;html=1;whiteSpace=wrap;connectable=0;strokeColor=inherit;overflow=hidden;fillColor=none;top=0;left=0;bottom=0;right=0;pointerEvents=1;fontSize=20;fontStyle=1" parent="ZLoGj9LW1wtHYjLQBv0--3" vertex="1">
          <mxGeometry x="140" width="307" height="37" as="geometry">
            <mxRectangle width="307" height="37" as="alternateBounds" />
          </mxGeometry>
        </mxCell>
        <mxCell id="ZLoGj9LW1wtHYjLQBv0--6" value="Salida" style="shape=partialRectangle;html=1;whiteSpace=wrap;connectable=0;strokeColor=inherit;overflow=hidden;fillColor=none;top=0;left=0;bottom=0;right=0;pointerEvents=1;fontSize=20;fontStyle=1" parent="ZLoGj9LW1wtHYjLQBv0--3" vertex="1">
          <mxGeometry x="447" width="223" height="37" as="geometry">
            <mxRectangle width="223" height="37" as="alternateBounds" />
          </mxGeometry>
        </mxCell>
        <mxCell id="ZLoGj9LW1wtHYjLQBv0--7" value="" style="shape=tableRow;horizontal=0;startSize=0;swimlaneHead=0;swimlaneBody=0;strokeColor=inherit;top=0;left=0;bottom=0;right=0;collapsible=0;dropTarget=0;fillColor=none;points=[[0,0.5],[1,0.5]];portConstraint=eastwest;fontSize=16;" parent="ZLoGj9LW1wtHYjLQBv0--2" vertex="1">
          <mxGeometry y="37" width="670" height="363" as="geometry" />
        </mxCell>
        <mxCell id="ZLoGj9LW1wtHYjLQBv0--8" value="" style="shape=partialRectangle;html=1;whiteSpace=wrap;connectable=0;strokeColor=inherit;overflow=hidden;fillColor=none;top=0;left=0;bottom=0;right=0;pointerEvents=1;fontSize=16;" parent="ZLoGj9LW1wtHYjLQBv0--7" vertex="1">
          <mxGeometry width="140" height="363" as="geometry">
            <mxRectangle width="140" height="363" as="alternateBounds" />
          </mxGeometry>
        </mxCell>
        <mxCell id="ZLoGj9LW1wtHYjLQBv0--9" value="" style="shape=partialRectangle;html=1;whiteSpace=wrap;connectable=0;strokeColor=inherit;overflow=hidden;fillColor=none;top=0;left=0;bottom=0;right=0;pointerEvents=1;fontSize=16;" parent="ZLoGj9LW1wtHYjLQBv0--7" vertex="1">
          <mxGeometry x="140" width="307" height="363" as="geometry">
            <mxRectangle width="307" height="363" as="alternateBounds" />
          </mxGeometry>
        </mxCell>
        <mxCell id="ZLoGj9LW1wtHYjLQBv0--10" value="" style="shape=partialRectangle;html=1;whiteSpace=wrap;connectable=0;strokeColor=inherit;overflow=hidden;fillColor=none;top=0;left=0;bottom=0;right=0;pointerEvents=1;fontSize=16;" parent="ZLoGj9LW1wtHYjLQBv0--7" vertex="1">
          <mxGeometry x="447" width="223" height="363" as="geometry">
            <mxRectangle width="223" height="363" as="alternateBounds" />
          </mxGeometry>
        </mxCell>
        <mxCell id="ZLoGj9LW1wtHYjLQBv0--11" value="&lt;b&gt;&lt;u&gt;&lt;font style=&quot;font-size: 16px;&quot;&gt;camicandy&lt;/font&gt;&lt;/u&gt;&lt;/b&gt;" style="shape=cylinder3;whiteSpace=wrap;html=1;boundedLbl=1;backgroundOutline=1;size=15;" parent="ZLoGj9LW1wtHYjLQBv0--1" vertex="1">
          <mxGeometry x="100" y="450" width="120" height="110" as="geometry" />
        </mxCell>
        <mxCell id="ZLoGj9LW1wtHYjLQBv0--12" value="" style="endArrow=classic;html=1;rounded=0;fontSize=12;startSize=8;endSize=8;curved=1;exitX=0.388;exitY=0.449;exitDx=0;exitDy=0;exitPerimeter=0;" parent="ZLoGj9LW1wtHYjLQBv0--1" edge="1">
          <mxGeometry width="50" height="50" relative="1" as="geometry">
            <mxPoint x="229.99999999999983" y="389.99699999999996" as="sourcePoint" />
            <mxPoint x="310.04" y="390.01" as="targetPoint" />
          </mxGeometry>
        </mxCell>
        <mxCell id="ZLoGj9LW1wtHYjLQBv0--13" value="Ingreso del administrador" style="text;html=1;align=center;verticalAlign=middle;whiteSpace=wrap;rounded=0;fontSize=16;" parent="ZLoGj9LW1wtHYjLQBv0--1" vertex="1">
          <mxGeometry x="225" y="360" width="200" height="30" as="geometry" />
        </mxCell>
        <mxCell id="ZLoGj9LW1wtHYjLQBv0--15" value="" style="html=1;shadow=0;dashed=0;align=center;verticalAlign=middle;shape=mxgraph.arrows2.arrow;dy=0.6;dx=40;notch=0;rotation=0;" parent="ZLoGj9LW1wtHYjLQBv0--1" vertex="1">
          <mxGeometry x="490" y="475" width="80" height="50" as="geometry" />
        </mxCell>
        <mxCell id="ZLoGj9LW1wtHYjLQBv0--16" value="&lt;font style=&quot;font-size: 16px;&quot;&gt;Actualizaciones en el sistema&lt;/font&gt;" style="shape=step;perimeter=stepPerimeter;whiteSpace=wrap;html=1;fixedSize=1;" parent="ZLoGj9LW1wtHYjLQBv0--1" vertex="1">
          <mxGeometry x="560" y="340" width="190" height="95" as="geometry" />
        </mxCell>
        <mxCell id="ZLoGj9LW1wtHYjLQBv0--18" value="&lt;font style=&quot;font-size: 30px;&quot;&gt;Diagrama IPO Funcional 11.0 Herramientas&lt;/font&gt;" style="text;html=1;align=center;verticalAlign=middle;whiteSpace=wrap;rounded=0;fontSize=16;fontStyle=1" parent="ZLoGj9LW1wtHYjLQBv0--1" vertex="1">
          <mxGeometry x="58" y="240" width="735" height="30" as="geometry" />
        </mxCell>
        <mxCell id="ZLoGj9LW1wtHYjLQBv0--19" value="&lt;ul&gt;&lt;li&gt;&amp;nbsp;Respaldo&lt;/li&gt;&lt;ul&gt;&lt;li&gt;Importar&lt;/li&gt;&lt;li&gt;Exportar&lt;/li&gt;&lt;/ul&gt;&lt;li&gt;Usuario&lt;/li&gt;&lt;ul&gt;&lt;li&gt;Agregar&lt;/li&gt;&lt;li&gt;Modificar&lt;/li&gt;&lt;li&gt;Eliminar&lt;/li&gt;&lt;/ul&gt;&lt;/ul&gt;" style="text;html=1;align=center;verticalAlign=middle;whiteSpace=wrap;rounded=0;fontSize=16;" parent="ZLoGj9LW1wtHYjLQBv0--1" vertex="1">
          <mxGeometry x="220" y="400" width="270" height="200" as="geometry" />
        </mxCell>
        <mxCell id="kWQSgS58WmpDQnlPlzea-0" value="" style="html=1;shadow=0;dashed=0;align=center;verticalAlign=middle;shape=mxgraph.arrows2.arrow;dy=0.6;dx=40;notch=0;rotation=90;" parent="ZLoGj9LW1wtHYjLQBv0--1" vertex="1">
          <mxGeometry x="600" y="465" width="80" height="50" as="geometry" />
        </mxCell>
        <mxCell id="kpaU2PycUL8ei8QWzX8L-0" value="&lt;span style=&quot;font-size: 20px;&quot;&gt;&lt;b&gt;&lt;u&gt;Notificación de estatus&lt;/u&gt;&lt;/b&gt;&lt;/span&gt;" style="shape=card;whiteSpace=wrap;html=1;rotation=-90;shadow=0;rounded=0;flipV=1;textDirection=vertical-rl;" parent="ZLoGj9LW1wtHYjLQBv0--1" vertex="1">
          <mxGeometry x="601.57" y="542.65" width="106.87" height="162.5" as="geometry" />
        </mxCell>
      </root>
    </mxGraphModel>
  </diagram>
  <diagram id="IohO9_ciYiPWWQY2keyF" name="13.0 - Reportes">
    <mxGraphModel dx="1120" dy="528" grid="1" gridSize="10" guides="1" tooltips="1" connect="1" arrows="1" fold="1" page="1" pageScale="1" pageWidth="827" pageHeight="1169" math="0" shadow="0">
      <root>
        <mxCell id="0" />
        <mxCell id="1" parent="0" />
        <mxCell id="ub2N_RjhCs8EgZd_fx44-1" value="" style="shape=table;startSize=0;container=1;collapsible=0;childLayout=tableLayout;fontSize=16;movable=0;resizable=0;rotatable=0;deletable=0;editable=0;locked=1;connectable=0;" parent="1" vertex="1">
          <mxGeometry x="90" y="290" width="670" height="400" as="geometry" />
        </mxCell>
        <mxCell id="ub2N_RjhCs8EgZd_fx44-2" value="" style="shape=tableRow;horizontal=0;startSize=0;swimlaneHead=0;swimlaneBody=0;strokeColor=inherit;top=0;left=0;bottom=0;right=0;collapsible=0;dropTarget=0;fillColor=none;points=[[0,0.5],[1,0.5]];portConstraint=eastwest;fontSize=16;" parent="ub2N_RjhCs8EgZd_fx44-1" vertex="1">
          <mxGeometry width="670" height="37" as="geometry" />
        </mxCell>
        <mxCell id="ub2N_RjhCs8EgZd_fx44-3" value="Entrada" style="shape=partialRectangle;html=1;whiteSpace=wrap;connectable=0;strokeColor=inherit;overflow=hidden;fillColor=none;top=0;left=0;bottom=0;right=0;pointerEvents=1;fontSize=20;fontStyle=1" parent="ub2N_RjhCs8EgZd_fx44-2" vertex="1">
          <mxGeometry width="140" height="37" as="geometry">
            <mxRectangle width="140" height="37" as="alternateBounds" />
          </mxGeometry>
        </mxCell>
        <mxCell id="ub2N_RjhCs8EgZd_fx44-4" value="Proceso" style="shape=partialRectangle;html=1;whiteSpace=wrap;connectable=0;strokeColor=inherit;overflow=hidden;fillColor=none;top=0;left=0;bottom=0;right=0;pointerEvents=1;fontSize=20;fontStyle=1" parent="ub2N_RjhCs8EgZd_fx44-2" vertex="1">
          <mxGeometry x="140" width="307" height="37" as="geometry">
            <mxRectangle width="307" height="37" as="alternateBounds" />
          </mxGeometry>
        </mxCell>
        <mxCell id="ub2N_RjhCs8EgZd_fx44-5" value="Salida" style="shape=partialRectangle;html=1;whiteSpace=wrap;connectable=0;strokeColor=inherit;overflow=hidden;fillColor=none;top=0;left=0;bottom=0;right=0;pointerEvents=1;fontSize=20;fontStyle=1" parent="ub2N_RjhCs8EgZd_fx44-2" vertex="1">
          <mxGeometry x="447" width="223" height="37" as="geometry">
            <mxRectangle width="223" height="37" as="alternateBounds" />
          </mxGeometry>
        </mxCell>
        <mxCell id="ub2N_RjhCs8EgZd_fx44-6" value="" style="shape=tableRow;horizontal=0;startSize=0;swimlaneHead=0;swimlaneBody=0;strokeColor=inherit;top=0;left=0;bottom=0;right=0;collapsible=0;dropTarget=0;fillColor=none;points=[[0,0.5],[1,0.5]];portConstraint=eastwest;fontSize=16;" parent="ub2N_RjhCs8EgZd_fx44-1" vertex="1">
          <mxGeometry y="37" width="670" height="363" as="geometry" />
        </mxCell>
        <mxCell id="ub2N_RjhCs8EgZd_fx44-7" value="" style="shape=partialRectangle;html=1;whiteSpace=wrap;connectable=0;strokeColor=inherit;overflow=hidden;fillColor=none;top=0;left=0;bottom=0;right=0;pointerEvents=1;fontSize=16;" parent="ub2N_RjhCs8EgZd_fx44-6" vertex="1">
          <mxGeometry width="140" height="363" as="geometry">
            <mxRectangle width="140" height="363" as="alternateBounds" />
          </mxGeometry>
        </mxCell>
        <mxCell id="ub2N_RjhCs8EgZd_fx44-8" value="" style="shape=partialRectangle;html=1;whiteSpace=wrap;connectable=0;strokeColor=inherit;overflow=hidden;fillColor=none;top=0;left=0;bottom=0;right=0;pointerEvents=1;fontSize=16;" parent="ub2N_RjhCs8EgZd_fx44-6" vertex="1">
          <mxGeometry x="140" width="307" height="363" as="geometry">
            <mxRectangle width="307" height="363" as="alternateBounds" />
          </mxGeometry>
        </mxCell>
        <mxCell id="ub2N_RjhCs8EgZd_fx44-9" value="" style="shape=partialRectangle;html=1;whiteSpace=wrap;connectable=0;strokeColor=inherit;overflow=hidden;fillColor=none;top=0;left=0;bottom=0;right=0;pointerEvents=1;fontSize=16;" parent="ub2N_RjhCs8EgZd_fx44-6" vertex="1">
          <mxGeometry x="447" width="223" height="363" as="geometry">
            <mxRectangle width="223" height="363" as="alternateBounds" />
          </mxGeometry>
        </mxCell>
        <mxCell id="ub2N_RjhCs8EgZd_fx44-10" value="&lt;b&gt;&lt;u&gt;&lt;font style=&quot;font-size: 16px;&quot;&gt;camicandy&lt;/font&gt;&lt;/u&gt;&lt;/b&gt;" style="shape=cylinder3;whiteSpace=wrap;html=1;boundedLbl=1;backgroundOutline=1;size=15;" parent="1" vertex="1">
          <mxGeometry x="100" y="450" width="120" height="110" as="geometry" />
        </mxCell>
        <mxCell id="ub2N_RjhCs8EgZd_fx44-11" value="" style="endArrow=classic;html=1;rounded=0;fontSize=12;startSize=8;endSize=8;curved=1;exitX=0.388;exitY=0.449;exitDx=0;exitDy=0;exitPerimeter=0;" parent="1" edge="1">
          <mxGeometry width="50" height="50" relative="1" as="geometry">
            <mxPoint x="229.99999999999983" y="389.99699999999996" as="sourcePoint" />
            <mxPoint x="310.04" y="390.01" as="targetPoint" />
          </mxGeometry>
        </mxCell>
        <mxCell id="ub2N_RjhCs8EgZd_fx44-12" value="Ingreso del usuario" style="text;html=1;align=center;verticalAlign=middle;whiteSpace=wrap;rounded=0;fontSize=16;" parent="1" vertex="1">
          <mxGeometry x="225" y="360" width="200" height="30" as="geometry" />
        </mxCell>
        <mxCell id="ub2N_RjhCs8EgZd_fx44-13" value="" style="html=1;shadow=0;dashed=0;align=center;verticalAlign=middle;shape=mxgraph.arrows2.arrow;dy=0.6;dx=40;notch=0;rotation=0;" parent="1" vertex="1">
          <mxGeometry x="480" y="473.75" width="80" height="50" as="geometry" />
        </mxCell>
        <mxCell id="ub2N_RjhCs8EgZd_fx44-14" value="&lt;span style=&quot;font-size: 16px;&quot;&gt;Formato con datos relevantes del módulo seleccionado&lt;/span&gt;" style="shape=step;perimeter=stepPerimeter;whiteSpace=wrap;html=1;fixedSize=1;" parent="1" vertex="1">
          <mxGeometry x="555" y="370" width="205" height="97.5" as="geometry" />
        </mxCell>
        <mxCell id="ub2N_RjhCs8EgZd_fx44-15" value="&lt;ul&gt;&lt;li&gt;Productos&lt;/li&gt;&lt;li&gt;&lt;span style=&quot;background-color: initial;&quot;&gt;Proveedores&lt;/span&gt;&lt;br&gt;&lt;/li&gt;&lt;li&gt;&lt;span style=&quot;background-color: initial;&quot;&gt;Ventas&lt;/span&gt;&lt;/li&gt;&lt;li&gt;&lt;span style=&quot;background-color: initial;&quot;&gt;Compras&lt;/span&gt;&lt;/li&gt;&lt;li&gt;&lt;span style=&quot;background-color: initial;&quot;&gt;Clientes&lt;/span&gt;&lt;/li&gt;&lt;/ul&gt;" style="text;html=1;align=center;verticalAlign=middle;whiteSpace=wrap;rounded=0;fontSize=16;" parent="1" vertex="1">
          <mxGeometry x="220" y="400" width="270" height="200" as="geometry" />
        </mxCell>
        <mxCell id="i4AN1NWuQ-4w6z2H3x4Z-1" value="&lt;font style=&quot;font-size: 30px;&quot;&gt;Diagrama IPO Funcional 13.0 Reportes&lt;/font&gt;" style="text;html=1;align=center;verticalAlign=middle;whiteSpace=wrap;rounded=0;fontSize=16;fontStyle=1" parent="1" vertex="1">
          <mxGeometry x="46" y="240" width="735" height="30" as="geometry" />
        </mxCell>
        <mxCell id="WEa8-dAnV-XNEFysr7fH-1" value="" style="html=1;shadow=0;dashed=0;align=center;verticalAlign=middle;shape=mxgraph.arrows2.arrow;dy=0.6;dx=40;notch=0;rotation=90;" parent="1" vertex="1">
          <mxGeometry x="617.5" y="492.65" width="80" height="50" as="geometry" />
        </mxCell>
        <mxCell id="5NshWdyM7BDup7EpWyt7-1" value="&lt;span style=&quot;font-size: 20px;&quot;&gt;&lt;b&gt;&lt;u&gt;Reportes&lt;/u&gt;&lt;/b&gt;&lt;/span&gt;" style="shape=card;whiteSpace=wrap;html=1;rotation=-90;shadow=0;rounded=0;flipV=1;textDirection=vertical-rl;" parent="1" vertex="1">
          <mxGeometry x="601.57" y="542.65" width="106.87" height="162.5" as="geometry" />
        </mxCell>
      </root>
    </mxGraphModel>
  </diagram>
</mxfile>
